{
	"asset":{
		"generator":"Khronos glTF Blender I/O v4.4.56",
		"version":"2.0"
	},
	"scene":0,
	"scenes":[
		{
			"name":"Scene",
			"nodes":[
				0,
				1,
				2,
				3,
				4,
				5,
				6
			]
		}
	],
	"nodes":[
		{
			"mesh":0,
			"name":"Cube.001"
		},
		{
			"mesh":1,
			"name":"Cylinder"
		},
		{
			"mesh":2,
			"name":"body"
		},
		{
			"mesh":3,
			"name":"left arm"
		},
		{
			"mesh":4,
			"name":"right arm"
		},
		{
			"mesh":5,
			"name":"left leg"
		},
		{
			"mesh":6,
			"name":"right leg"
		}
	],
	"materials":[
		{
			"doubleSided":true,
			"name":"Material.011",
			"pbrMetallicRoughness":{
				"baseColorFactor":[
					0,
					0,
					0,
					1
				],
				"metallicFactor":0.20000000298023224,
				"roughnessFactor":0.3499999940395355
			}
		},
		{
			"doubleSided":true,
			"name":"Material.013",
			"pbrMetallicRoughness":{
				"baseColorFactor":[
					0.160678893327713,
					0.160678893327713,
					0.160678893327713,
					1
				],
				"roughnessFactor":0.19999998807907104
			}
		}
	],
	"meshes":[
		{
			"name":"Cube.007",
			"primitives":[
				{
					"attributes":{
						"POSITION":0,
						"NORMAL":1,
						"TEXCOORD_0":2
					},
					"indices":3,
					"material":0
				}
			]
		},
		{
			"name":"Cylinder.003",
			"primitives":[
				{
					"attributes":{
						"POSITION":4,
						"NORMAL":5,
						"TEXCOORD_0":6
					},
					"indices":7,
					"material":1
				}
			]
		},
		{
			"name":"Cylinder",
			"primitives":[
				{
					"attributes":{
						"POSITION":8,
						"NORMAL":9,
						"TEXCOORD_0":10
					},
					"indices":11,
					"material":0
				}
			]
		},
		{
			"name":"Cube.002",
			"primitives":[
				{
					"attributes":{
						"POSITION":12,
						"NORMAL":13,
						"TEXCOORD_0":14
					},
					"indices":15,
					"material":0
				}
			]
		},
		{
			"name":"Cube.001",
			"primitives":[
				{
					"attributes":{
						"POSITION":16,
						"NORMAL":17,
						"TEXCOORD_0":18
					},
					"indices":19,
					"material":0
				}
			]
		},
		{
			"name":"Cube.003",
			"primitives":[
				{
					"attributes":{
						"POSITION":20,
						"NORMAL":21,
						"TEXCOORD_0":22
					},
					"indices":23,
					"material":0
				}
			]
		},
		{
			"name":"Cube.004",
			"primitives":[
				{
					"attributes":{
						"POSITION":24,
						"NORMAL":25,
						"TEXCOORD_0":26
					},
					"indices":15,
					"material":0
				}
			]
		}
	],
	"accessors":[
		{
			"bufferView":0,
			"componentType":5126,
			"count":24,
			"max":[
				0.9921280145645142,
				6.305928707122803,
				0.32035261392593384
			],
			"min":[
				-1.0078721046447754,
				4.305928707122803,
				-0.8302109837532043
			],
			"type":"VEC3"
		},
		{
			"bufferView":1,
			"componentType":5126,
			"count":24,
			"type":"VEC3"
		},
		{
			"bufferView":2,
			"componentType":5126,
			"count":24,
			"type":"VEC2"
		},
		{
			"bufferView":3,
			"componentType":5123,
			"count":36,
			"type":"SCALAR"
		},
		{
			"bufferView":4,
			"componentType":5126,
			"count":104,
			"max":[
				0.8623179793357849,
				7.301440715789795,
				-0.05961251258850098
			],
			"min":[
				-0.8623180985450745,
				5.847567081451416,
				-0.40453970432281494
			],
			"type":"VEC3"
		},
		{
			"bufferView":5,
			"componentType":5126,
			"count":104,
			"type":"VEC3"
		},
		{
			"bufferView":6,
			"componentType":5126,
			"count":104,
			"type":"VEC2"
		},
		{
			"bufferView":7,
			"componentType":5123,
			"count":156,
			"type":"SCALAR"
		},
		{
			"bufferView":8,
			"componentType":5126,
			"count":82,
			"max":[
				0.7460039258003235,
				4.310123920440674,
				0.2790796756744385
			],
			"min":[
				-0.7465748190879822,
				2.105982780456543,
				-0.7444671392440796
			],
			"type":"VEC3"
		},
		{
			"bufferView":9,
			"componentType":5126,
			"count":82,
			"type":"VEC3"
		},
		{
			"bufferView":10,
			"componentType":5126,
			"count":82,
			"type":"VEC2"
		},
		{
			"bufferView":11,
			"componentType":5123,
			"count":132,
			"type":"SCALAR"
		},
		{
			"bufferView":12,
			"componentType":5126,
			"count":24,
			"max":[
				1.5032737255096436,
				4.143239498138428,
				-0.04036282002925873
			],
			"min":[
				0.48975250124931335,
				2.4320569038391113,
				-0.42502444982528687
			],
			"type":"VEC3"
		},
		{
			"bufferView":13,
			"componentType":5126,
			"count":24,
			"type":"VEC3"
		},
		{
			"bufferView":14,
			"componentType":5126,
			"count":24,
			"type":"VEC2"
		},
		{
			"bufferView":15,
			"componentType":5123,
			"count":36,
			"type":"SCALAR"
		},
		{
			"bufferView":16,
			"componentType":5126,
			"count":24,
			"max":[
				-0.4903230369091034,
				4.143239498138428,
				-0.0403626412153244
			],
			"min":[
				-1.5038444995880127,
				2.4320569038391113,
				-0.42502427101135254
			],
			"type":"VEC3"
		},
		{
			"bufferView":17,
			"componentType":5126,
			"count":24,
			"type":"VEC3"
		},
		{
			"bufferView":18,
			"componentType":5126,
			"count":24,
			"type":"VEC2"
		},
		{
			"bufferView":19,
			"componentType":5123,
			"count":36,
			"type":"SCALAR"
		},
		{
			"bufferView":20,
			"componentType":5126,
			"count":24,
			"max":[
				0.5874390006065369,
				2.200727701187134,
				0.007056280970573425
			],
			"min":[
				0.10823127627372742,
				0.011930704116821289,
				-0.4724435806274414
			],
			"type":"VEC3"
		},
		{
			"bufferView":21,
			"componentType":5126,
			"count":24,
			"type":"VEC3"
		},
		{
			"bufferView":22,
			"componentType":5126,
			"count":24,
			"type":"VEC2"
		},
		{
			"bufferView":23,
			"componentType":5123,
			"count":36,
			"type":"SCALAR"
		},
		{
			"bufferView":24,
			"componentType":5126,
			"count":24,
			"max":[
				-0.10879829525947571,
				2.2007274627685547,
				0.007056400179862976
			],
			"min":[
				-0.5880060791969299,
				0.011930704116821289,
				-0.47244346141815186
			],
			"type":"VEC3"
		},
		{
			"bufferView":25,
			"componentType":5126,
			"count":24,
			"type":"VEC3"
		},
		{
			"bufferView":26,
			"componentType":5126,
			"count":24,
			"type":"VEC2"
		}
	],
	"bufferViews":[
		{
			"buffer":0,
			"byteLength":288,
			"byteOffset":0,
			"target":34962
		},
		{
			"buffer":0,
			"byteLength":288,
			"byteOffset":288,
			"target":34962
		},
		{
			"buffer":0,
			"byteLength":192,
			"byteOffset":576,
			"target":34962
		},
		{
			"buffer":0,
			"byteLength":72,
			"byteOffset":768,
			"target":34963
		},
		{
			"buffer":0,
			"byteLength":1248,
			"byteOffset":840,
			"target":34962
		},
		{
			"buffer":0,
			"byteLength":1248,
			"byteOffset":2088,
			"target":34962
		},
		{
			"buffer":0,
			"byteLength":832,
			"byteOffset":3336,
			"target":34962
		},
		{
			"buffer":0,
			"byteLength":312,
			"byteOffset":4168,
			"target":34963
		},
		{
			"buffer":0,
			"byteLength":984,
			"byteOffset":4480,
			"target":34962
		},
		{
			"buffer":0,
			"byteLength":984,
			"byteOffset":5464,
			"target":34962
		},
		{
			"buffer":0,
			"byteLength":656,
			"byteOffset":6448,
			"target":34962
		},
		{
			"buffer":0,
			"byteLength":264,
			"byteOffset":7104,
			"target":34963
		},
		{
			"buffer":0,
			"byteLength":288,
			"byteOffset":7368,
			"target":34962
		},
		{
			"buffer":0,
			"byteLength":288,
			"byteOffset":7656,
			"target":34962
		},
		{
			"buffer":0,
			"byteLength":192,
			"byteOffset":7944,
			"target":34962
		},
		{
			"buffer":0,
			"byteLength":72,
			"byteOffset":8136,
			"target":34963
		},
		{
			"buffer":0,
			"byteLength":288,
			"byteOffset":8208,
			"target":34962
		},
		{
			"buffer":0,
			"byteLength":288,
			"byteOffset":8496,
			"target":34962
		},
		{
			"buffer":0,
			"byteLength":192,
			"byteOffset":8784,
			"target":34962
		},
		{
			"buffer":0,
			"byteLength":72,
			"byteOffset":8976,
			"target":34963
		},
		{
			"buffer":0,
			"byteLength":288,
			"byteOffset":9048,
			"target":34962
		},
		{
			"buffer":0,
			"byteLength":288,
			"byteOffset":9336,
			"target":34962
		},
		{
			"buffer":0,
			"byteLength":192,
			"byteOffset":9624,
			"target":34962
		},
		{
			"buffer":0,
			"byteLength":72,
			"byteOffset":9816,
			"target":34963
		},
		{
			"buffer":0,
			"byteLength":288,
			"byteOffset":9888,
			"target":34962
		},
		{
			"buffer":0,
			"byteLength":288,
			"byteOffset":10176,
			"target":34962
		},
		{
			"buffer":0,
			"byteLength":192,
			"byteOffset":10464,
			"target":34962
		}
	],
	"buffers":[
		{
			"byteLength":10656,
			"uri":"Gatekeeper2.bin"
		}
	]
}
