{
	"asset":{
		"generator":"Khronos glTF Blender I/O v5.1.19",
		"version":"2.0"
	},
	"scene":0,
	"scenes":[
		{
			"name":"Scene",
			"nodes":[
				0,
				1,
				2,
				3,
				4,
				5,
				6,
				7
			]
		}
	],
	"nodes":[
		{
			"mesh":0,
			"name":"Cube"
		},
		{
			"mesh":1,
			"name":"Torus",
			"rotation":[
				0.5,
				-0.5,
				-0.5,
				0.5000000596046448
			],
			"scale":[
				0.7495506405830383,
				0.7495506405830383,
				0.7495506405830383
			],
			"translation":[
				0,
				6.544093608856201,
				-0.23168982565402985
			]
		},
		{
			"mesh":2,
			"name":"Cylinder"
		},
		{
			"mesh":3,
			"name":"body"
		},
		{
			"mesh":4,
			"name":"left arm"
		},
		{
			"mesh":5,
			"name":"right arm"
		},
		{
			"mesh":6,
			"name":"left leg"
		},
		{
			"mesh":7,
			"name":"right leg"
		}
	],
	"materials":[
		{
			"doubleSided":true,
			"name":"Material.011",
			"pbrMetallicRoughness":{
				"baseColorFactor":[
					0,
					0,
					0,
					1
				],
				"metallicFactor":0.20000000298023224,
				"roughnessFactor":0.3499999940395355
			}
		},
		{
			"doubleSided":true,
			"name":"Material.013",
			"pbrMetallicRoughness":{
				"baseColorFactor":[
					0.160678893327713,
					0.160678893327713,
					0.160678893327713,
					1
				],
				"roughnessFactor":0.19999998807907104
			}
		}
	],
	"meshes":[
		{
			"name":"Cube.007",
			"primitives":[
				{
					"attributes":{
						"POSITION":0,
						"NORMAL":1,
						"TEXCOORD_0":2
					},
					"indices":3,
					"material":0
				}
			]
		},
		{
			"name":"Torus",
			"primitives":[
				{
					"attributes":{
						"POSITION":4,
						"NORMAL":5,
						"TEXCOORD_0":6
					},
					"indices":7
				}
			]
		},
		{
			"name":"Cylinder.003",
			"primitives":[
				{
					"attributes":{
						"POSITION":8,
						"NORMAL":9,
						"TEXCOORD_0":10
					},
					"indices":11,
					"material":1
				}
			]
		},
		{
			"name":"Cylinder",
			"primitives":[
				{
					"attributes":{
						"POSITION":12,
						"NORMAL":13,
						"TEXCOORD_0":14
					},
					"indices":15,
					"material":0
				}
			]
		},
		{
			"name":"Cube.002",
			"primitives":[
				{
					"attributes":{
						"POSITION":16,
						"NORMAL":17,
						"TEXCOORD_0":18
					},
					"indices":19,
					"material":0
				}
			]
		},
		{
			"name":"Cube.001",
			"primitives":[
				{
					"attributes":{
						"POSITION":20,
						"NORMAL":21,
						"TEXCOORD_0":22
					},
					"indices":23,
					"material":0
				}
			]
		},
		{
			"name":"Cube.003",
			"primitives":[
				{
					"attributes":{
						"POSITION":24,
						"NORMAL":25,
						"TEXCOORD_0":26
					},
					"indices":27,
					"material":0
				}
			]
		},
		{
			"name":"Cube.004",
			"primitives":[
				{
					"attributes":{
						"POSITION":28,
						"NORMAL":29,
						"TEXCOORD_0":30
					},
					"indices":19,
					"material":0
				}
			]
		}
	],
	"accessors":[
		{
			"bufferView":0,
			"componentType":5126,
			"count":24,
			"max":[
				0.9921280145645142,
				6.305928707122803,
				0.32035261392593384
			],
			"min":[
				-1.0078721046447754,
				4.305928707122803,
				-0.8302109837532043
			],
			"type":"VEC3"
		},
		{
			"bufferView":1,
			"componentType":5126,
			"count":24,
			"type":"VEC3"
		},
		{
			"bufferView":2,
			"componentType":5126,
			"count":24,
			"type":"VEC2"
		},
		{
			"bufferView":3,
			"componentType":5123,
			"count":36,
			"type":"SCALAR"
		},
		{
			"bufferView":4,
			"componentType":5126,
			"count":96,
			"max":[
				1.25,
				0.25,
				1.0825319290161133
			],
			"min":[
				-1.25,
				-0.25,
				-1.0825319290161133
			],
			"type":"VEC3"
		},
		{
			"bufferView":5,
			"componentType":5126,
			"count":96,
			"type":"VEC3"
		},
		{
			"bufferView":6,
			"componentType":5126,
			"count":96,
			"type":"VEC2"
		},
		{
			"bufferView":7,
			"componentType":5123,
			"count":144,
			"type":"SCALAR"
		},
		{
			"bufferView":8,
			"componentType":5126,
			"count":184,
			"max":[
				2.239708423614502,
				7.656764030456543,
				0.9966064691543579
			],
			"min":[
				-0.8152949810028076,
				4.483720779418945,
				-0.40223228931427
			],
			"type":"VEC3"
		},
		{
			"bufferView":9,
			"componentType":5126,
			"count":184,
			"type":"VEC3"
		},
		{
			"bufferView":10,
			"componentType":5126,
			"count":184,
			"type":"VEC2"
		},
		{
			"bufferView":11,
			"componentType":5123,
			"count":288,
			"type":"SCALAR"
		},
		{
			"bufferView":12,
			"componentType":5126,
			"count":80,
			"max":[
				0.7460039258003235,
				4.310123920440674,
				0.2790796756744385
			],
			"min":[
				-0.7465748190879822,
				2.105982780456543,
				-0.7444671392440796
			],
			"type":"VEC3"
		},
		{
			"bufferView":13,
			"componentType":5126,
			"count":80,
			"type":"VEC3"
		},
		{
			"bufferView":14,
			"componentType":5126,
			"count":80,
			"type":"VEC2"
		},
		{
			"bufferView":15,
			"componentType":5123,
			"count":132,
			"type":"SCALAR"
		},
		{
			"bufferView":16,
			"componentType":5126,
			"count":24,
			"max":[
				1.5032737255096436,
				4.143239498138428,
				-0.04036282002925873
			],
			"min":[
				0.48975250124931335,
				2.4320569038391113,
				-0.42502444982528687
			],
			"type":"VEC3"
		},
		{
			"bufferView":17,
			"componentType":5126,
			"count":24,
			"type":"VEC3"
		},
		{
			"bufferView":18,
			"componentType":5126,
			"count":24,
			"type":"VEC2"
		},
		{
			"bufferView":19,
			"componentType":5123,
			"count":36,
			"type":"SCALAR"
		},
		{
			"bufferView":20,
			"componentType":5126,
			"count":24,
			"max":[
				-0.4903230369091034,
				4.143239498138428,
				-0.0403626412153244
			],
			"min":[
				-1.5038444995880127,
				2.4320569038391113,
				-0.42502427101135254
			],
			"type":"VEC3"
		},
		{
			"bufferView":21,
			"componentType":5126,
			"count":24,
			"type":"VEC3"
		},
		{
			"bufferView":22,
			"componentType":5126,
			"count":24,
			"type":"VEC2"
		},
		{
			"bufferView":23,
			"componentType":5123,
			"count":36,
			"type":"SCALAR"
		},
		{
			"bufferView":24,
			"componentType":5126,
			"count":24,
			"max":[
				0.5874390006065369,
				2.200727701187134,
				0.007056280970573425
			],
			"min":[
				0.10823127627372742,
				0.011930704116821289,
				-0.4724435806274414
			],
			"type":"VEC3"
		},
		{
			"bufferView":25,
			"componentType":5126,
			"count":24,
			"type":"VEC3"
		},
		{
			"bufferView":26,
			"componentType":5126,
			"count":24,
			"type":"VEC2"
		},
		{
			"bufferView":27,
			"componentType":5123,
			"count":36,
			"type":"SCALAR"
		},
		{
			"bufferView":28,
			"componentType":5126,
			"count":24,
			"max":[
				-0.10879829525947571,
				2.2007274627685547,
				0.007056400179862976
			],
			"min":[
				-0.5880060791969299,
				0.011930704116821289,
				-0.47244346141815186
			],
			"type":"VEC3"
		},
		{
			"bufferView":29,
			"componentType":5126,
			"count":24,
			"type":"VEC3"
		},
		{
			"bufferView":30,
			"componentType":5126,
			"count":24,
			"type":"VEC2"
		}
	],
	"bufferViews":[
		{
			"buffer":0,
			"byteLength":288,
			"byteOffset":0,
			"target":34962
		},
		{
			"buffer":0,
			"byteLength":288,
			"byteOffset":288,
			"target":34962
		},
		{
			"buffer":0,
			"byteLength":192,
			"byteOffset":576,
			"target":34962
		},
		{
			"buffer":0,
			"byteLength":72,
			"byteOffset":768,
			"target":34963
		},
		{
			"buffer":0,
			"byteLength":1152,
			"byteOffset":840,
			"target":34962
		},
		{
			"buffer":0,
			"byteLength":1152,
			"byteOffset":1992,
			"target":34962
		},
		{
			"buffer":0,
			"byteLength":768,
			"byteOffset":3144,
			"target":34962
		},
		{
			"buffer":0,
			"byteLength":288,
			"byteOffset":3912,
			"target":34963
		},
		{
			"buffer":0,
			"byteLength":2208,
			"byteOffset":4200,
			"target":34962
		},
		{
			"buffer":0,
			"byteLength":2208,
			"byteOffset":6408,
			"target":34962
		},
		{
			"buffer":0,
			"byteLength":1472,
			"byteOffset":8616,
			"target":34962
		},
		{
			"buffer":0,
			"byteLength":576,
			"byteOffset":10088,
			"target":34963
		},
		{
			"buffer":0,
			"byteLength":960,
			"byteOffset":10664,
			"target":34962
		},
		{
			"buffer":0,
			"byteLength":960,
			"byteOffset":11624,
			"target":34962
		},
		{
			"buffer":0,
			"byteLength":640,
			"byteOffset":12584,
			"target":34962
		},
		{
			"buffer":0,
			"byteLength":264,
			"byteOffset":13224,
			"target":34963
		},
		{
			"buffer":0,
			"byteLength":288,
			"byteOffset":13488,
			"target":34962
		},
		{
			"buffer":0,
			"byteLength":288,
			"byteOffset":13776,
			"target":34962
		},
		{
			"buffer":0,
			"byteLength":192,
			"byteOffset":14064,
			"target":34962
		},
		{
			"buffer":0,
			"byteLength":72,
			"byteOffset":14256,
			"target":34963
		},
		{
			"buffer":0,
			"byteLength":288,
			"byteOffset":14328,
			"target":34962
		},
		{
			"buffer":0,
			"byteLength":288,
			"byteOffset":14616,
			"target":34962
		},
		{
			"buffer":0,
			"byteLength":192,
			"byteOffset":14904,
			"target":34962
		},
		{
			"buffer":0,
			"byteLength":72,
			"byteOffset":15096,
			"target":34963
		},
		{
			"buffer":0,
			"byteLength":288,
			"byteOffset":15168,
			"target":34962
		},
		{
			"buffer":0,
			"byteLength":288,
			"byteOffset":15456,
			"target":34962
		},
		{
			"buffer":0,
			"byteLength":192,
			"byteOffset":15744,
			"target":34962
		},
		{
			"buffer":0,
			"byteLength":72,
			"byteOffset":15936,
			"target":34963
		},
		{
			"buffer":0,
			"byteLength":288,
			"byteOffset":16008,
			"target":34962
		},
		{
			"buffer":0,
			"byteLength":288,
			"byteOffset":16296,
			"target":34962
		},
		{
			"buffer":0,
			"byteLength":192,
			"byteOffset":16584,
			"target":34962
		}
	],
	"buffers":[
		{
			"byteLength":16776,
			"uri":"individuated%20individual.bin"
		}
	]
}
