{
	"asset":{
		"generator":"Khronos glTF Blender I/O v5.1.19",
		"version":"2.0"
	},
	"scene":0,
	"scenes":[
		{
			"name":"Scene",
			"nodes":[
				0,
				1,
				2,
				3,
				4,
				5,
				6,
				7,
				8
			]
		}
	],
	"nodes":[
		{
			"mesh":0,
			"name":"Cube"
		},
		{
			"mesh":1,
			"name":"Cube.001"
		},
		{
			"mesh":2,
			"name":"Cube.002"
		},
		{
			"mesh":3,
			"name":"Cube.003"
		},
		{
			"mesh":4,
			"name":"right leg"
		},
		{
			"mesh":5,
			"name":"right arm"
		},
		{
			"mesh":6,
			"name":"left leg"
		},
		{
			"mesh":7,
			"name":"left arm"
		},
		{
			"mesh":8,
			"name":"body"
		}
	],
	"materials":[
		{
			"doubleSided":true,
			"name":"Material",
			"pbrMetallicRoughness":{
				"baseColorFactor":[
					0.800000011920929,
					0.800000011920929,
					0.800000011920929,
					1
				],
				"metallicFactor":0,
				"roughnessFactor":0.18333333730697632
			}
		},
		{
			"doubleSided":true,
			"name":"metal",
			"pbrMetallicRoughness":{
				"baseColorFactor":[
					0.3283624053001404,
					0.3283624053001404,
					0.3283624053001404,
					1
				],
				"metallicFactor":0.8700000047683716,
				"roughnessFactor":0.1966666728258133
			}
		},
		{
			"doubleSided":true,
			"name":"Material.004",
			"pbrMetallicRoughness":{
				"baseColorFactor":[
					0,
					0,
					0,
					1
				],
				"metallicFactor":0,
				"roughnessFactor":0
			}
		},
		{
			"doubleSided":true,
			"name":"bodysuit",
			"pbrMetallicRoughness":{
				"baseColorFactor":[
					0,
					0,
					0,
					1
				],
				"metallicFactor":0
			}
		}
	],
	"meshes":[
		{
			"name":"Cube",
			"primitives":[
				{
					"attributes":{
						"POSITION":0,
						"NORMAL":1,
						"TEXCOORD_0":2
					},
					"indices":3,
					"material":0
				}
			]
		},
		{
			"name":"Cube.001",
			"primitives":[
				{
					"attributes":{
						"POSITION":4,
						"NORMAL":5,
						"TEXCOORD_0":6
					},
					"indices":7,
					"material":1
				},
				{
					"attributes":{
						"POSITION":8,
						"NORMAL":9,
						"TEXCOORD_0":10
					},
					"indices":11,
					"material":2
				}
			]
		},
		{
			"name":"Cube.002",
			"primitives":[
				{
					"attributes":{
						"POSITION":12,
						"NORMAL":13,
						"TEXCOORD_0":14
					},
					"indices":3,
					"material":1
				}
			]
		},
		{
			"name":"Cube.003",
			"primitives":[
				{
					"attributes":{
						"POSITION":15,
						"NORMAL":16,
						"TEXCOORD_0":17
					},
					"indices":18,
					"material":1
				}
			]
		},
		{
			"name":"Cube.004",
			"primitives":[
				{
					"attributes":{
						"POSITION":19,
						"NORMAL":20,
						"TEXCOORD_0":21
					},
					"indices":22,
					"material":3
				}
			]
		},
		{
			"name":"Cube.005",
			"primitives":[
				{
					"attributes":{
						"POSITION":23,
						"NORMAL":24,
						"TEXCOORD_0":25
					},
					"indices":26,
					"material":3
				}
			]
		},
		{
			"name":"Cube.006",
			"primitives":[
				{
					"attributes":{
						"POSITION":27,
						"NORMAL":28,
						"TEXCOORD_0":29
					},
					"indices":30,
					"material":3
				}
			]
		},
		{
			"name":"Cube.007",
			"primitives":[
				{
					"attributes":{
						"POSITION":31,
						"NORMAL":32,
						"TEXCOORD_0":33
					},
					"indices":22,
					"material":3
				}
			]
		},
		{
			"name":"Cylinder",
			"primitives":[
				{
					"attributes":{
						"POSITION":34,
						"NORMAL":35,
						"TEXCOORD_0":36
					},
					"indices":37,
					"material":3
				},
				{
					"attributes":{
						"POSITION":38,
						"NORMAL":39,
						"TEXCOORD_0":40
					},
					"indices":41,
					"material":3
				}
			]
		}
	],
	"accessors":[
		{
			"bufferView":0,
			"componentType":5126,
			"count":24,
			"max":[
				1.7003618478775024,
				6.378940582275391,
				0.7146144509315491
			],
			"min":[
				-1.700071930885315,
				4.378940582275391,
				-1.2853858470916748
			],
			"type":"VEC3"
		},
		{
			"bufferView":1,
			"componentType":5126,
			"count":24,
			"type":"VEC3"
		},
		{
			"bufferView":2,
			"componentType":5126,
			"count":24,
			"type":"VEC2"
		},
		{
			"bufferView":3,
			"componentType":5123,
			"count":36,
			"type":"SCALAR"
		},
		{
			"bufferView":4,
			"componentType":5126,
			"count":28,
			"max":[
				0.89594566822052,
				6.245575428009033,
				1.0090785026550293
			],
			"min":[
				-1.4733222723007202,
				4.512305736541748,
				0.7216644883155823
			],
			"type":"VEC3"
		},
		{
			"bufferView":5,
			"componentType":5126,
			"count":28,
			"type":"VEC3"
		},
		{
			"bufferView":6,
			"componentType":5126,
			"count":28,
			"type":"VEC2"
		},
		{
			"bufferView":7,
			"componentType":5123,
			"count":54,
			"type":"SCALAR"
		},
		{
			"bufferView":8,
			"componentType":5126,
			"count":12,
			"max":[
				0.45735859870910645,
				5.87866735458374,
				1.0090785026550293
			],
			"min":[
				-1.0347353219985962,
				4.879213809967041,
				1.0090785026550293
			],
			"type":"VEC3"
		},
		{
			"bufferView":9,
			"componentType":5126,
			"count":12,
			"type":"VEC3"
		},
		{
			"bufferView":10,
			"componentType":5126,
			"count":12,
			"type":"VEC2"
		},
		{
			"bufferView":11,
			"componentType":5123,
			"count":30,
			"type":"SCALAR"
		},
		{
			"bufferView":12,
			"componentType":5126,
			"count":24,
			"max":[
				0.8237559199333191,
				6.175671100616455,
				1.2106878757476807
			],
			"min":[
				0.5696020722389221,
				4.582210063934326,
				0.9464572668075562
			],
			"type":"VEC3"
		},
		{
			"bufferView":13,
			"componentType":5126,
			"count":24,
			"type":"VEC3"
		},
		{
			"bufferView":14,
			"componentType":5126,
			"count":24,
			"type":"VEC2"
		},
		{
			"bufferView":15,
			"componentType":5126,
			"count":24,
			"max":[
				1.5461140871047974,
				6.245575428009033,
				1.0090782642364502
			],
			"min":[
				0.9570791721343994,
				4.512305736541748,
				0.7216644883155823
			],
			"type":"VEC3"
		},
		{
			"bufferView":16,
			"componentType":5126,
			"count":24,
			"type":"VEC3"
		},
		{
			"bufferView":17,
			"componentType":5126,
			"count":24,
			"type":"VEC2"
		},
		{
			"bufferView":18,
			"componentType":5123,
			"count":36,
			"type":"SCALAR"
		},
		{
			"bufferView":19,
			"componentType":5126,
			"count":24,
			"max":[
				-0.10879829525947571,
				2.3966779708862305,
				0.007056400179862976
			],
			"min":[
				-0.5880060791969299,
				0.20788121223449707,
				-0.47244346141815186
			],
			"type":"VEC3"
		},
		{
			"bufferView":20,
			"componentType":5126,
			"count":24,
			"type":"VEC3"
		},
		{
			"bufferView":21,
			"componentType":5126,
			"count":24,
			"type":"VEC2"
		},
		{
			"bufferView":22,
			"componentType":5123,
			"count":36,
			"type":"SCALAR"
		},
		{
			"bufferView":23,
			"componentType":5126,
			"count":24,
			"max":[
				-0.4903230369091034,
				4.3391900062561035,
				-0.0403626412153244
			],
			"min":[
				-1.5038444995880127,
				2.628007411956787,
				-0.42502427101135254
			],
			"type":"VEC3"
		},
		{
			"bufferView":24,
			"componentType":5126,
			"count":24,
			"type":"VEC3"
		},
		{
			"bufferView":25,
			"componentType":5126,
			"count":24,
			"type":"VEC2"
		},
		{
			"bufferView":26,
			"componentType":5123,
			"count":36,
			"type":"SCALAR"
		},
		{
			"bufferView":27,
			"componentType":5126,
			"count":24,
			"max":[
				0.5874390006065369,
				2.3966782093048096,
				0.007056280970573425
			],
			"min":[
				0.10823127627372742,
				0.20788121223449707,
				-0.4724435806274414
			],
			"type":"VEC3"
		},
		{
			"bufferView":28,
			"componentType":5126,
			"count":24,
			"type":"VEC3"
		},
		{
			"bufferView":29,
			"componentType":5126,
			"count":24,
			"type":"VEC2"
		},
		{
			"bufferView":30,
			"componentType":5123,
			"count":36,
			"type":"SCALAR"
		},
		{
			"bufferView":31,
			"componentType":5126,
			"count":24,
			"max":[
				1.5032737255096436,
				4.3391900062561035,
				-0.04036282002925873
			],
			"min":[
				0.48975250124931335,
				2.628007411956787,
				-0.42502444982528687
			],
			"type":"VEC3"
		},
		{
			"bufferView":32,
			"componentType":5126,
			"count":24,
			"type":"VEC3"
		},
		{
			"bufferView":33,
			"componentType":5126,
			"count":24,
			"type":"VEC2"
		},
		{
			"bufferView":34,
			"componentType":5126,
			"count":48,
			"max":[
				0.7460039258003235,
				4.50607442855835,
				0.2790796756744385
			],
			"min":[
				-0.7465748190879822,
				2.3019332885742188,
				-0.7444671392440796
			],
			"type":"VEC3"
		},
		{
			"bufferView":35,
			"componentType":5126,
			"count":48,
			"type":"VEC3"
		},
		{
			"bufferView":36,
			"componentType":5126,
			"count":48,
			"type":"VEC2"
		},
		{
			"bufferView":37,
			"componentType":5123,
			"count":84,
			"type":"SCALAR"
		},
		{
			"bufferView":38,
			"componentType":5126,
			"count":32,
			"max":[
				0.7460039258003235,
				4.50607442855835,
				0.2790796756744385
			],
			"min":[
				-0.7465748190879822,
				2.3019332885742188,
				-0.7444671392440796
			],
			"type":"VEC3"
		},
		{
			"bufferView":39,
			"componentType":5126,
			"count":32,
			"type":"VEC3"
		},
		{
			"bufferView":40,
			"componentType":5126,
			"count":32,
			"type":"VEC2"
		},
		{
			"bufferView":41,
			"componentType":5123,
			"count":48,
			"type":"SCALAR"
		}
	],
	"bufferViews":[
		{
			"buffer":0,
			"byteLength":288,
			"byteOffset":0,
			"target":34962
		},
		{
			"buffer":0,
			"byteLength":288,
			"byteOffset":288,
			"target":34962
		},
		{
			"buffer":0,
			"byteLength":192,
			"byteOffset":576,
			"target":34962
		},
		{
			"buffer":0,
			"byteLength":72,
			"byteOffset":768,
			"target":34963
		},
		{
			"buffer":0,
			"byteLength":336,
			"byteOffset":840,
			"target":34962
		},
		{
			"buffer":0,
			"byteLength":336,
			"byteOffset":1176,
			"target":34962
		},
		{
			"buffer":0,
			"byteLength":224,
			"byteOffset":1512,
			"target":34962
		},
		{
			"buffer":0,
			"byteLength":108,
			"byteOffset":1736,
			"target":34963
		},
		{
			"buffer":0,
			"byteLength":144,
			"byteOffset":1844,
			"target":34962
		},
		{
			"buffer":0,
			"byteLength":144,
			"byteOffset":1988,
			"target":34962
		},
		{
			"buffer":0,
			"byteLength":96,
			"byteOffset":2132,
			"target":34962
		},
		{
			"buffer":0,
			"byteLength":60,
			"byteOffset":2228,
			"target":34963
		},
		{
			"buffer":0,
			"byteLength":288,
			"byteOffset":2288,
			"target":34962
		},
		{
			"buffer":0,
			"byteLength":288,
			"byteOffset":2576,
			"target":34962
		},
		{
			"buffer":0,
			"byteLength":192,
			"byteOffset":2864,
			"target":34962
		},
		{
			"buffer":0,
			"byteLength":288,
			"byteOffset":3056,
			"target":34962
		},
		{
			"buffer":0,
			"byteLength":288,
			"byteOffset":3344,
			"target":34962
		},
		{
			"buffer":0,
			"byteLength":192,
			"byteOffset":3632,
			"target":34962
		},
		{
			"buffer":0,
			"byteLength":72,
			"byteOffset":3824,
			"target":34963
		},
		{
			"buffer":0,
			"byteLength":288,
			"byteOffset":3896,
			"target":34962
		},
		{
			"buffer":0,
			"byteLength":288,
			"byteOffset":4184,
			"target":34962
		},
		{
			"buffer":0,
			"byteLength":192,
			"byteOffset":4472,
			"target":34962
		},
		{
			"buffer":0,
			"byteLength":72,
			"byteOffset":4664,
			"target":34963
		},
		{
			"buffer":0,
			"byteLength":288,
			"byteOffset":4736,
			"target":34962
		},
		{
			"buffer":0,
			"byteLength":288,
			"byteOffset":5024,
			"target":34962
		},
		{
			"buffer":0,
			"byteLength":192,
			"byteOffset":5312,
			"target":34962
		},
		{
			"buffer":0,
			"byteLength":72,
			"byteOffset":5504,
			"target":34963
		},
		{
			"buffer":0,
			"byteLength":288,
			"byteOffset":5576,
			"target":34962
		},
		{
			"buffer":0,
			"byteLength":288,
			"byteOffset":5864,
			"target":34962
		},
		{
			"buffer":0,
			"byteLength":192,
			"byteOffset":6152,
			"target":34962
		},
		{
			"buffer":0,
			"byteLength":72,
			"byteOffset":6344,
			"target":34963
		},
		{
			"buffer":0,
			"byteLength":288,
			"byteOffset":6416,
			"target":34962
		},
		{
			"buffer":0,
			"byteLength":288,
			"byteOffset":6704,
			"target":34962
		},
		{
			"buffer":0,
			"byteLength":192,
			"byteOffset":6992,
			"target":34962
		},
		{
			"buffer":0,
			"byteLength":576,
			"byteOffset":7184,
			"target":34962
		},
		{
			"buffer":0,
			"byteLength":576,
			"byteOffset":7760,
			"target":34962
		},
		{
			"buffer":0,
			"byteLength":384,
			"byteOffset":8336,
			"target":34962
		},
		{
			"buffer":0,
			"byteLength":168,
			"byteOffset":8720,
			"target":34963
		},
		{
			"buffer":0,
			"byteLength":384,
			"byteOffset":8888,
			"target":34962
		},
		{
			"buffer":0,
			"byteLength":384,
			"byteOffset":9272,
			"target":34962
		},
		{
			"buffer":0,
			"byteLength":256,
			"byteOffset":9656,
			"target":34962
		},
		{
			"buffer":0,
			"byteLength":96,
			"byteOffset":9912,
			"target":34963
		}
	],
	"buffers":[
		{
			"byteLength":10008,
			"uri":"michaelwave.bin"
		}
	]
}
