{
	"asset":{
		"generator":"Khronos glTF Blender I/O v5.1.19",
		"version":"2.0"
	},
	"scene":0,
	"scenes":[
		{
			"name":"Scene",
			"nodes":[
				0,
				1,
				2,
				3,
				4,
				5
			]
		}
	],
	"nodes":[
		{
			"mesh":0,
			"name":"head",
			"rotation":[
				0,
				-0.7071068286895752,
				0.7071068286895752,
				5.338509012631221e-08
			],
			"translation":[
				-0.0002852845937013626,
				5.139725685119629,
				-0.23269367218017578
			]
		},
		{
			"mesh":1,
			"name":"body",
			"rotation":[
				0,
				-0.7071068286895752,
				0.7071068286895752,
				5.338509012631221e-08
			],
			"translation":[
				-0.0002853734767995775,
				3.105982780456543,
				-0.23269367218017578
			]
		},
		{
			"mesh":2,
			"name":"left arm",
			"rotation":[
				-0.37992820143699646,
				-0.5963679552078247,
				0.5963677763938904,
				0.3799282908439636
			],
			"translation":[
				0.7215388417243958,
				3.9387006759643555,
				-0.23269367218017578
			]
		},
		{
			"mesh":3,
			"name":"right arm",
			"rotation":[
				-0.3799282908439636,
				0.5963678359985352,
				-0.5963677763938904,
				0.3799281716346741
			],
			"translation":[
				-0.7221093773841858,
				3.9387006759643555,
				-0.23269343376159668
			]
		},
		{
			"mesh":4,
			"name":"left leg",
			"rotation":[
				0,
				-0.7071068286895752,
				0.7071068286895752,
				5.338509012631221e-08
			],
			"translation":[
				0.3419186472892761,
				2.022934913635254,
				-0.23269367218017578
			]
		},
		{
			"mesh":5,
			"name":"right leg",
			"rotation":[
				0,
				-0.7071068286895752,
				0.7071068286895752,
				5.338509012631221e-08
			],
			"translation":[
				-0.3424857258796692,
				2.022934913635254,
				-0.23269355297088623
			]
		}
	],
	"materials":[
		{
			"doubleSided":true,
			"name":"Material.002",
			"pbrMetallicRoughness":{
				"baseColorTexture":{
					"index":0
				},
				"roughnessFactor":0.10000000149011612
			}
		},
		{
			"doubleSided":true,
			"name":"Material.004",
			"pbrMetallicRoughness":{
				"baseColorFactor":[
					0.5647074580192566,
					0.2917765974998474,
					0.0003034516121260822,
					1
				],
				"roughnessFactor":0.10000000149011612
			}
		}
	],
	"meshes":[
		{
			"name":"Sphere",
			"primitives":[
				{
					"attributes":{
						"POSITION":0,
						"NORMAL":1,
						"TEXCOORD_0":2
					},
					"indices":3,
					"material":0
				}
			]
		},
		{
			"name":"Cylinder",
			"primitives":[
				{
					"attributes":{
						"POSITION":4,
						"NORMAL":5,
						"TEXCOORD_0":6
					},
					"indices":7,
					"material":1
				}
			]
		},
		{
			"name":"Cube.002",
			"primitives":[
				{
					"attributes":{
						"POSITION":8,
						"NORMAL":9,
						"TEXCOORD_0":10
					},
					"indices":11,
					"material":1
				}
			]
		},
		{
			"name":"Cube.001",
			"primitives":[
				{
					"attributes":{
						"POSITION":12,
						"NORMAL":13,
						"TEXCOORD_0":14
					},
					"indices":15,
					"material":1
				}
			]
		},
		{
			"name":"Cube.003",
			"primitives":[
				{
					"attributes":{
						"POSITION":16,
						"NORMAL":17,
						"TEXCOORD_0":18
					},
					"indices":19,
					"material":1
				}
			]
		},
		{
			"name":"Cube.004",
			"primitives":[
				{
					"attributes":{
						"POSITION":20,
						"NORMAL":21,
						"TEXCOORD_0":22
					},
					"indices":23,
					"material":1
				}
			]
		}
	],
	"textures":[
		{
			"sampler":0,
			"source":0
		}
	],
	"images":[
		{
			"mimeType":"image/png",
			"name":"bodhisattva",
			"uri":"bodhisattva.png"
		}
	],
	"accessors":[
		{
			"bufferView":0,
			"componentType":5126,
			"count":112,
			"max":[
				0.9999998807907104,
				0.9999998807907104,
				1
			],
			"min":[
				-1,
				-0.9999999403953552,
				-1
			],
			"type":"VEC3"
		},
		{
			"bufferView":1,
			"componentType":5126,
			"count":112,
			"type":"VEC3"
		},
		{
			"bufferView":2,
			"componentType":5126,
			"count":112,
			"type":"VEC2"
		},
		{
			"bufferView":3,
			"componentType":5123,
			"count":144,
			"type":"SCALAR"
		},
		{
			"bufferView":4,
			"componentType":5126,
			"count":80,
			"max":[
				0.7462894320487976,
				0.511773407459259,
				1
			],
			"min":[
				-0.7462893128395081,
				-0.511773407459259,
				-1.2041411399841309
			],
			"type":"VEC3"
		},
		{
			"bufferView":5,
			"componentType":5126,
			"count":80,
			"type":"VEC3"
		},
		{
			"bufferView":6,
			"componentType":5126,
			"count":80,
			"type":"VEC2"
		},
		{
			"bufferView":7,
			"componentType":5123,
			"count":132,
			"type":"SCALAR"
		},
		{
			"bufferView":8,
			"componentType":5126,
			"count":24,
			"max":[
				0.1359984427690506,
				0.19233082234859467,
				0.19233082234859467
			],
			"min":[
				-1.610341191291809,
				-0.19233082234859467,
				-0.19233082234859467
			],
			"type":"VEC3"
		},
		{
			"bufferView":9,
			"componentType":5126,
			"count":24,
			"type":"VEC3"
		},
		{
			"bufferView":10,
			"componentType":5126,
			"count":24,
			"type":"VEC2"
		},
		{
			"bufferView":11,
			"componentType":5123,
			"count":36,
			"type":"SCALAR"
		},
		{
			"bufferView":12,
			"componentType":5126,
			"count":24,
			"max":[
				1.610341191291809,
				0.19233083724975586,
				0.19233082234859467
			],
			"min":[
				-0.13599847257137299,
				-0.19233080744743347,
				-0.19233082234859467
			],
			"type":"VEC3"
		},
		{
			"bufferView":13,
			"componentType":5126,
			"count":24,
			"type":"VEC3"
		},
		{
			"bufferView":14,
			"componentType":5126,
			"count":24,
			"type":"VEC2"
		},
		{
			"bufferView":15,
			"componentType":5123,
			"count":36,
			"type":"SCALAR"
		},
		{
			"bufferView":16,
			"componentType":5126,
			"count":24,
			"max":[
				0.2336873710155487,
				0.23974990844726562,
				2.0110042095184326
			],
			"min":[
				-0.24552036821842194,
				-0.239749938249588,
				-0.17779269814491272
			],
			"type":"VEC3"
		},
		{
			"bufferView":17,
			"componentType":5126,
			"count":24,
			"type":"VEC3"
		},
		{
			"bufferView":18,
			"componentType":5126,
			"count":24,
			"type":"VEC2"
		},
		{
			"bufferView":19,
			"componentType":5123,
			"count":36,
			"type":"SCALAR"
		},
		{
			"bufferView":20,
			"componentType":5126,
			"count":24,
			"max":[
				0.24552033841609955,
				0.23974990844726562,
				2.0110042095184326
			],
			"min":[
				-0.23368743062019348,
				-0.239749938249588,
				-0.17779266834259033
			],
			"type":"VEC3"
		},
		{
			"bufferView":21,
			"componentType":5126,
			"count":24,
			"type":"VEC3"
		},
		{
			"bufferView":22,
			"componentType":5126,
			"count":24,
			"type":"VEC2"
		},
		{
			"bufferView":23,
			"componentType":5123,
			"count":36,
			"type":"SCALAR"
		}
	],
	"bufferViews":[
		{
			"buffer":0,
			"byteLength":1344,
			"byteOffset":0,
			"target":34962
		},
		{
			"buffer":0,
			"byteLength":1344,
			"byteOffset":1344,
			"target":34962
		},
		{
			"buffer":0,
			"byteLength":896,
			"byteOffset":2688,
			"target":34962
		},
		{
			"buffer":0,
			"byteLength":288,
			"byteOffset":3584,
			"target":34963
		},
		{
			"buffer":0,
			"byteLength":960,
			"byteOffset":3872,
			"target":34962
		},
		{
			"buffer":0,
			"byteLength":960,
			"byteOffset":4832,
			"target":34962
		},
		{
			"buffer":0,
			"byteLength":640,
			"byteOffset":5792,
			"target":34962
		},
		{
			"buffer":0,
			"byteLength":264,
			"byteOffset":6432,
			"target":34963
		},
		{
			"buffer":0,
			"byteLength":288,
			"byteOffset":6696,
			"target":34962
		},
		{
			"buffer":0,
			"byteLength":288,
			"byteOffset":6984,
			"target":34962
		},
		{
			"buffer":0,
			"byteLength":192,
			"byteOffset":7272,
			"target":34962
		},
		{
			"buffer":0,
			"byteLength":72,
			"byteOffset":7464,
			"target":34963
		},
		{
			"buffer":0,
			"byteLength":288,
			"byteOffset":7536,
			"target":34962
		},
		{
			"buffer":0,
			"byteLength":288,
			"byteOffset":7824,
			"target":34962
		},
		{
			"buffer":0,
			"byteLength":192,
			"byteOffset":8112,
			"target":34962
		},
		{
			"buffer":0,
			"byteLength":72,
			"byteOffset":8304,
			"target":34963
		},
		{
			"buffer":0,
			"byteLength":288,
			"byteOffset":8376,
			"target":34962
		},
		{
			"buffer":0,
			"byteLength":288,
			"byteOffset":8664,
			"target":34962
		},
		{
			"buffer":0,
			"byteLength":192,
			"byteOffset":8952,
			"target":34962
		},
		{
			"buffer":0,
			"byteLength":72,
			"byteOffset":9144,
			"target":34963
		},
		{
			"buffer":0,
			"byteLength":288,
			"byteOffset":9216,
			"target":34962
		},
		{
			"buffer":0,
			"byteLength":288,
			"byteOffset":9504,
			"target":34962
		},
		{
			"buffer":0,
			"byteLength":192,
			"byteOffset":9792,
			"target":34962
		},
		{
			"buffer":0,
			"byteLength":72,
			"byteOffset":9984,
			"target":34963
		}
	],
	"samplers":[
		{
			"magFilter":9729,
			"minFilter":9987
		}
	],
	"buffers":[
		{
			"byteLength":10056,
			"uri":"bodhisattva.bin"
		}
	]
}
