{
	"asset":{
		"generator":"Khronos glTF Blender I/O v5.1.19",
		"version":"2.0"
	},
	"scene":0,
	"scenes":[
		{
			"name":"Scene",
			"nodes":[
				0,
				1,
				2,
				3,
				4,
				5,
				6,
				7,
				8,
				9,
				10,
				11,
				12,
				13,
				14,
				15,
				16
			]
		}
	],
	"nodes":[
		{
			"mesh":0,
			"name":"Plane",
			"translation":[
				-0.8006259799003601,
				0,
				1.982985019683838
			]
		},
		{
			"name":"Empty"
		},
		{
			"mesh":1,
			"name":"A1"
		},
		{
			"mesh":2,
			"name":"T1"
		},
		{
			"mesh":3,
			"name":"T2"
		},
		{
			"mesh":4,
			"name":"E1"
		},
		{
			"mesh":5,
			"name":"N"
		},
		{
			"mesh":6,
			"name":"T3"
		},
		{
			"mesh":7,
			"name":"I"
		},
		{
			"mesh":8,
			"name":"V"
		},
		{
			"mesh":9,
			"name":"E2"
		},
		{
			"mesh":10,
			"name":"E3"
		},
		{
			"mesh":11,
			"name":"E4"
		},
		{
			"mesh":12,
			"name":"L"
		},
		{
			"mesh":13,
			"name":"P"
		},
		{
			"mesh":14,
			"name":"R"
		},
		{
			"mesh":15,
			"name":"H"
		}
	],
	"materials":[
		{
			"doubleSided":true,
			"name":"Material.001",
			"pbrMetallicRoughness":{
				"baseColorFactor":[
					0.41319969296455383,
					0.32933667302131653,
					0.05473397672176361,
					1
				],
				"metallicFactor":0.8833333253860474,
				"roughnessFactor":0.1899999976158142
			}
		},
		{
			"doubleSided":true,
			"name":"Material.002",
			"pbrMetallicRoughness":{
				"baseColorFactor":[
					0.41319969296455383,
					0.32933667302131653,
					0.05473397672176361,
					1
				],
				"metallicFactor":0.8833333253860474,
				"roughnessFactor":0.1899999976158142
			}
		},
		{
			"doubleSided":true,
			"name":"Material.003",
			"pbrMetallicRoughness":{
				"baseColorFactor":[
					0.41319969296455383,
					0.32933667302131653,
					0.05473397672176361,
					1
				],
				"metallicFactor":0.8833333253860474,
				"roughnessFactor":0.1899999976158142
			}
		},
		{
			"doubleSided":true,
			"name":"Material.004",
			"pbrMetallicRoughness":{
				"baseColorFactor":[
					0.41319969296455383,
					0.32933667302131653,
					0.05473397672176361,
					1
				],
				"metallicFactor":0.8833333253860474,
				"roughnessFactor":0.1899999976158142
			}
		},
		{
			"doubleSided":true,
			"name":"Material.005",
			"pbrMetallicRoughness":{
				"baseColorFactor":[
					0.41319969296455383,
					0.32933667302131653,
					0.05473397672176361,
					1
				],
				"metallicFactor":0.8833333253860474,
				"roughnessFactor":0.1899999976158142
			}
		},
		{
			"doubleSided":true,
			"name":"Material.006",
			"pbrMetallicRoughness":{
				"baseColorFactor":[
					0.41319969296455383,
					0.32933667302131653,
					0.05473397672176361,
					1
				],
				"metallicFactor":0.8833333253860474,
				"roughnessFactor":0.1899999976158142
			}
		}
	],
	"meshes":[
		{
			"name":"Plane",
			"primitives":[
				{
					"attributes":{
						"POSITION":0,
						"NORMAL":1,
						"TEXCOORD_0":2
					},
					"indices":3
				}
			]
		},
		{
			"name":"Cube.001",
			"primitives":[
				{
					"attributes":{
						"POSITION":4,
						"NORMAL":5,
						"TEXCOORD_0":6
					},
					"indices":7,
					"material":0
				}
			]
		},
		{
			"name":"Plane.001",
			"primitives":[
				{
					"attributes":{
						"POSITION":8,
						"NORMAL":9,
						"TEXCOORD_0":10
					},
					"indices":11,
					"material":0
				}
			]
		},
		{
			"name":"Plane.002",
			"primitives":[
				{
					"attributes":{
						"POSITION":12,
						"NORMAL":13,
						"TEXCOORD_0":14
					},
					"indices":11,
					"material":1
				}
			]
		},
		{
			"name":"Plane.003",
			"primitives":[
				{
					"attributes":{
						"POSITION":15,
						"NORMAL":16,
						"TEXCOORD_0":17
					},
					"indices":18,
					"material":0
				}
			]
		},
		{
			"name":"Plane.004",
			"primitives":[
				{
					"attributes":{
						"POSITION":19,
						"NORMAL":20,
						"TEXCOORD_0":21
					},
					"indices":22,
					"material":0
				}
			]
		},
		{
			"name":"Plane.005",
			"primitives":[
				{
					"attributes":{
						"POSITION":23,
						"NORMAL":24,
						"TEXCOORD_0":25
					},
					"indices":26,
					"material":2
				}
			]
		},
		{
			"name":"Plane.006",
			"primitives":[
				{
					"attributes":{
						"POSITION":27,
						"NORMAL":28,
						"TEXCOORD_0":29
					},
					"indices":30,
					"material":0
				}
			]
		},
		{
			"name":"Plane.007",
			"primitives":[
				{
					"attributes":{
						"POSITION":31,
						"NORMAL":32,
						"TEXCOORD_0":33
					},
					"indices":34,
					"material":0
				}
			]
		},
		{
			"name":"Plane.008",
			"primitives":[
				{
					"attributes":{
						"POSITION":35,
						"NORMAL":36,
						"TEXCOORD_0":37
					},
					"indices":18,
					"material":3
				}
			]
		},
		{
			"name":"Plane.009",
			"primitives":[
				{
					"attributes":{
						"POSITION":38,
						"NORMAL":39,
						"TEXCOORD_0":40
					},
					"indices":41,
					"material":4
				}
			]
		},
		{
			"name":"Plane.010",
			"primitives":[
				{
					"attributes":{
						"POSITION":42,
						"NORMAL":43,
						"TEXCOORD_0":44
					},
					"indices":45,
					"material":5
				}
			]
		},
		{
			"name":"Plane.011",
			"primitives":[
				{
					"attributes":{
						"POSITION":46,
						"NORMAL":47,
						"TEXCOORD_0":48
					},
					"indices":49,
					"material":0
				}
			]
		},
		{
			"name":"Plane.012",
			"primitives":[
				{
					"attributes":{
						"POSITION":50,
						"NORMAL":51,
						"TEXCOORD_0":52
					},
					"indices":53,
					"material":0
				}
			]
		},
		{
			"name":"Plane.013",
			"primitives":[
				{
					"attributes":{
						"POSITION":54,
						"NORMAL":55,
						"TEXCOORD_0":56
					},
					"indices":57,
					"material":0
				}
			]
		},
		{
			"name":"Plane.014",
			"primitives":[
				{
					"attributes":{
						"POSITION":58,
						"NORMAL":59,
						"TEXCOORD_0":60
					},
					"indices":61,
					"material":0
				}
			]
		}
	],
	"accessors":[
		{
			"bufferView":0,
			"componentType":5126,
			"count":6,
			"max":[
				0.3685724139213562,
				0,
				-2.542819023132324
			],
			"min":[
				-0.05279858782887459,
				0,
				-3.1361348628997803
			],
			"type":"VEC3"
		},
		{
			"bufferView":1,
			"componentType":5126,
			"count":6,
			"type":"VEC3"
		},
		{
			"bufferView":2,
			"componentType":5126,
			"count":6,
			"type":"VEC2"
		},
		{
			"bufferView":3,
			"componentType":5123,
			"count":12,
			"type":"SCALAR"
		},
		{
			"bufferView":4,
			"componentType":5126,
			"count":216,
			"max":[
				-0.3971897065639496,
				0.14896000921726227,
				-0.5875470638275146
			],
			"min":[
				-0.8078666925430298,
				0,
				-1.1606158018112183
			],
			"type":"VEC3"
		},
		{
			"bufferView":5,
			"componentType":5126,
			"count":216,
			"type":"VEC3"
		},
		{
			"bufferView":6,
			"componentType":5126,
			"count":216,
			"type":"VEC2"
		},
		{
			"bufferView":7,
			"componentType":5123,
			"count":366,
			"type":"SCALAR"
		},
		{
			"bufferView":8,
			"componentType":5126,
			"count":168,
			"max":[
				-0.08058200776576996,
				0.1492743343114853,
				-0.674740195274353
			],
			"min":[
				-0.49949291348457336,
				0,
				-1.2647665739059448
			],
			"type":"VEC3"
		},
		{
			"bufferView":9,
			"componentType":5126,
			"count":168,
			"type":"VEC3"
		},
		{
			"bufferView":10,
			"componentType":5126,
			"count":168,
			"type":"VEC2"
		},
		{
			"bufferView":11,
			"componentType":5123,
			"count":276,
			"type":"SCALAR"
		},
		{
			"bufferView":12,
			"componentType":5126,
			"count":168,
			"max":[
				0.23731020092964172,
				0.1483975052833557,
				-0.7057859897613525
			],
			"min":[
				-0.09681925177574158,
				0,
				-1.1773061752319336
			],
			"type":"VEC3"
		},
		{
			"bufferView":13,
			"componentType":5126,
			"count":168,
			"type":"VEC3"
		},
		{
			"bufferView":14,
			"componentType":5126,
			"count":168,
			"type":"VEC2"
		},
		{
			"bufferView":15,
			"componentType":5126,
			"count":252,
			"max":[
				0.5964232683181763,
				0.1483975052833557,
				-0.6560615301132202
			],
			"min":[
				0.27195554971694946,
				7.450580596923828e-09,
				-1.1974518299102783
			],
			"type":"VEC3"
		},
		{
			"bufferView":16,
			"componentType":5126,
			"count":252,
			"type":"VEC3"
		},
		{
			"bufferView":17,
			"componentType":5126,
			"count":252,
			"type":"VEC2"
		},
		{
			"bufferView":18,
			"componentType":5123,
			"count":420,
			"type":"SCALAR"
		},
		{
			"bufferView":19,
			"componentType":5126,
			"count":266,
			"max":[
				1.0093234777450562,
				0.14747945964336395,
				-0.6481368541717529
			],
			"min":[
				0.6350542902946472,
				0.00026682019233703613,
				-1.2119431495666504
			],
			"type":"VEC3"
		},
		{
			"bufferView":20,
			"componentType":5126,
			"count":266,
			"type":"VEC3"
		},
		{
			"bufferView":21,
			"componentType":5126,
			"count":266,
			"type":"VEC2"
		},
		{
			"bufferView":22,
			"componentType":5123,
			"count":444,
			"type":"SCALAR"
		},
		{
			"bufferView":23,
			"componentType":5126,
			"count":168,
			"max":[
				1.43129301071167,
				0.15007656812667847,
				-0.678471565246582
			],
			"min":[
				0.9914290904998779,
				0.0008022263646125793,
				-1.2246251106262207
			],
			"type":"VEC3"
		},
		{
			"bufferView":24,
			"componentType":5126,
			"count":168,
			"type":"VEC3"
		},
		{
			"bufferView":25,
			"componentType":5126,
			"count":168,
			"type":"VEC2"
		},
		{
			"bufferView":26,
			"componentType":5123,
			"count":276,
			"type":"SCALAR"
		},
		{
			"bufferView":27,
			"componentType":5126,
			"count":98,
			"max":[
				1.542014241218567,
				0.1485815942287445,
				-0.6543954610824585
			],
			"min":[
				1.4006142616271973,
				0.0002739652991294861,
				-1.1794008016586304
			],
			"type":"VEC3"
		},
		{
			"bufferView":28,
			"componentType":5126,
			"count":98,
			"type":"VEC3"
		},
		{
			"bufferView":29,
			"componentType":5126,
			"count":98,
			"type":"VEC2"
		},
		{
			"bufferView":30,
			"componentType":5123,
			"count":156,
			"type":"SCALAR"
		},
		{
			"bufferView":31,
			"componentType":5126,
			"count":168,
			"max":[
				1.9234390258789062,
				0.14921236038208008,
				-0.6491702198982239
			],
			"min":[
				1.5685242414474487,
				-0.0015703290700912476,
				-1.2488552331924438
			],
			"type":"VEC3"
		},
		{
			"bufferView":32,
			"componentType":5126,
			"count":168,
			"type":"VEC3"
		},
		{
			"bufferView":33,
			"componentType":5126,
			"count":168,
			"type":"VEC2"
		},
		{
			"bufferView":34,
			"componentType":5123,
			"count":276,
			"type":"SCALAR"
		},
		{
			"bufferView":35,
			"componentType":5126,
			"count":252,
			"max":[
				2.272043228149414,
				0.1483975052833557,
				-0.6560615301132202
			],
			"min":[
				1.947575569152832,
				7.450580596923828e-09,
				-1.1974518299102783
			],
			"type":"VEC3"
		},
		{
			"bufferView":36,
			"componentType":5126,
			"count":252,
			"type":"VEC3"
		},
		{
			"bufferView":37,
			"componentType":5126,
			"count":252,
			"type":"VEC2"
		},
		{
			"bufferView":38,
			"componentType":5126,
			"count":252,
			"max":[
				0.21161237359046936,
				0.16131490468978882,
				0.09607747197151184
			],
			"min":[
				-0.27811139822006226,
				0.012917406857013702,
				-0.6506425142288208
			],
			"type":"VEC3"
		},
		{
			"bufferView":39,
			"componentType":5126,
			"count":252,
			"type":"VEC3"
		},
		{
			"bufferView":40,
			"componentType":5126,
			"count":252,
			"type":"VEC2"
		},
		{
			"bufferView":41,
			"componentType":5123,
			"count":420,
			"type":"SCALAR"
		},
		{
			"bufferView":42,
			"componentType":5126,
			"count":252,
			"max":[
				1.679228663444519,
				0.1483975052833557,
				0.14326825737953186
			],
			"min":[
				1.2737700939178467,
				7.450580596923828e-09,
				-0.5894263982772827
			],
			"type":"VEC3"
		},
		{
			"bufferView":43,
			"componentType":5126,
			"count":252,
			"type":"VEC3"
		},
		{
			"bufferView":44,
			"componentType":5126,
			"count":252,
			"type":"VEC2"
		},
		{
			"bufferView":45,
			"componentType":5123,
			"count":420,
			"type":"SCALAR"
		},
		{
			"bufferView":46,
			"componentType":5126,
			"count":182,
			"max":[
				0.6873127222061157,
				0.14976660907268524,
				0.14273232221603394
			],
			"min":[
				0.2593695819377899,
				0,
				-0.579316258430481
			],
			"type":"VEC3"
		},
		{
			"bufferView":47,
			"componentType":5126,
			"count":182,
			"type":"VEC3"
		},
		{
			"bufferView":48,
			"componentType":5126,
			"count":182,
			"type":"VEC2"
		},
		{
			"bufferView":49,
			"componentType":5123,
			"count":300,
			"type":"SCALAR"
		},
		{
			"bufferView":50,
			"componentType":5126,
			"count":238,
			"max":[
				1.1949198246002197,
				0.15144556760787964,
				0.14809870719909668
			],
			"min":[
				0.674424409866333,
				0.0019831061363220215,
				-0.6221795678138733
			],
			"type":"VEC3"
		},
		{
			"bufferView":51,
			"componentType":5126,
			"count":238,
			"type":"VEC3"
		},
		{
			"bufferView":52,
			"componentType":5126,
			"count":238,
			"type":"VEC2"
		},
		{
			"bufferView":53,
			"componentType":5123,
			"count":408,
			"type":"SCALAR"
		},
		{
			"bufferView":54,
			"componentType":5126,
			"count":354,
			"max":[
				2.266801357269287,
				0.1487138569355011,
				0.12517186999320984
			],
			"min":[
				1.7362358570098877,
				0.0006720200181007385,
				-0.6015452146530151
			],
			"type":"VEC3"
		},
		{
			"bufferView":55,
			"componentType":5126,
			"count":354,
			"type":"VEC3"
		},
		{
			"bufferView":56,
			"componentType":5126,
			"count":354,
			"type":"VEC2"
		},
		{
			"bufferView":57,
			"componentType":5123,
			"count":576,
			"type":"SCALAR"
		},
		{
			"bufferView":58,
			"componentType":5126,
			"count":322,
			"max":[
				-0.28521230816841125,
				0.15097756683826447,
				0.15605954825878143
			],
			"min":[
				-0.8030603528022766,
				0.0035876482725143433,
				-0.5675557851791382
			],
			"type":"VEC3"
		},
		{
			"bufferView":59,
			"componentType":5126,
			"count":322,
			"type":"VEC3"
		},
		{
			"bufferView":60,
			"componentType":5126,
			"count":322,
			"type":"VEC2"
		},
		{
			"bufferView":61,
			"componentType":5123,
			"count":540,
			"type":"SCALAR"
		}
	],
	"bufferViews":[
		{
			"buffer":0,
			"byteLength":72,
			"byteOffset":0,
			"target":34962
		},
		{
			"buffer":0,
			"byteLength":72,
			"byteOffset":72,
			"target":34962
		},
		{
			"buffer":0,
			"byteLength":48,
			"byteOffset":144,
			"target":34962
		},
		{
			"buffer":0,
			"byteLength":24,
			"byteOffset":192,
			"target":34963
		},
		{
			"buffer":0,
			"byteLength":2592,
			"byteOffset":216,
			"target":34962
		},
		{
			"buffer":0,
			"byteLength":2592,
			"byteOffset":2808,
			"target":34962
		},
		{
			"buffer":0,
			"byteLength":1728,
			"byteOffset":5400,
			"target":34962
		},
		{
			"buffer":0,
			"byteLength":732,
			"byteOffset":7128,
			"target":34963
		},
		{
			"buffer":0,
			"byteLength":2016,
			"byteOffset":7860,
			"target":34962
		},
		{
			"buffer":0,
			"byteLength":2016,
			"byteOffset":9876,
			"target":34962
		},
		{
			"buffer":0,
			"byteLength":1344,
			"byteOffset":11892,
			"target":34962
		},
		{
			"buffer":0,
			"byteLength":552,
			"byteOffset":13236,
			"target":34963
		},
		{
			"buffer":0,
			"byteLength":2016,
			"byteOffset":13788,
			"target":34962
		},
		{
			"buffer":0,
			"byteLength":2016,
			"byteOffset":15804,
			"target":34962
		},
		{
			"buffer":0,
			"byteLength":1344,
			"byteOffset":17820,
			"target":34962
		},
		{
			"buffer":0,
			"byteLength":3024,
			"byteOffset":19164,
			"target":34962
		},
		{
			"buffer":0,
			"byteLength":3024,
			"byteOffset":22188,
			"target":34962
		},
		{
			"buffer":0,
			"byteLength":2016,
			"byteOffset":25212,
			"target":34962
		},
		{
			"buffer":0,
			"byteLength":840,
			"byteOffset":27228,
			"target":34963
		},
		{
			"buffer":0,
			"byteLength":3192,
			"byteOffset":28068,
			"target":34962
		},
		{
			"buffer":0,
			"byteLength":3192,
			"byteOffset":31260,
			"target":34962
		},
		{
			"buffer":0,
			"byteLength":2128,
			"byteOffset":34452,
			"target":34962
		},
		{
			"buffer":0,
			"byteLength":888,
			"byteOffset":36580,
			"target":34963
		},
		{
			"buffer":0,
			"byteLength":2016,
			"byteOffset":37468,
			"target":34962
		},
		{
			"buffer":0,
			"byteLength":2016,
			"byteOffset":39484,
			"target":34962
		},
		{
			"buffer":0,
			"byteLength":1344,
			"byteOffset":41500,
			"target":34962
		},
		{
			"buffer":0,
			"byteLength":552,
			"byteOffset":42844,
			"target":34963
		},
		{
			"buffer":0,
			"byteLength":1176,
			"byteOffset":43396,
			"target":34962
		},
		{
			"buffer":0,
			"byteLength":1176,
			"byteOffset":44572,
			"target":34962
		},
		{
			"buffer":0,
			"byteLength":784,
			"byteOffset":45748,
			"target":34962
		},
		{
			"buffer":0,
			"byteLength":312,
			"byteOffset":46532,
			"target":34963
		},
		{
			"buffer":0,
			"byteLength":2016,
			"byteOffset":46844,
			"target":34962
		},
		{
			"buffer":0,
			"byteLength":2016,
			"byteOffset":48860,
			"target":34962
		},
		{
			"buffer":0,
			"byteLength":1344,
			"byteOffset":50876,
			"target":34962
		},
		{
			"buffer":0,
			"byteLength":552,
			"byteOffset":52220,
			"target":34963
		},
		{
			"buffer":0,
			"byteLength":3024,
			"byteOffset":52772,
			"target":34962
		},
		{
			"buffer":0,
			"byteLength":3024,
			"byteOffset":55796,
			"target":34962
		},
		{
			"buffer":0,
			"byteLength":2016,
			"byteOffset":58820,
			"target":34962
		},
		{
			"buffer":0,
			"byteLength":3024,
			"byteOffset":60836,
			"target":34962
		},
		{
			"buffer":0,
			"byteLength":3024,
			"byteOffset":63860,
			"target":34962
		},
		{
			"buffer":0,
			"byteLength":2016,
			"byteOffset":66884,
			"target":34962
		},
		{
			"buffer":0,
			"byteLength":840,
			"byteOffset":68900,
			"target":34963
		},
		{
			"buffer":0,
			"byteLength":3024,
			"byteOffset":69740,
			"target":34962
		},
		{
			"buffer":0,
			"byteLength":3024,
			"byteOffset":72764,
			"target":34962
		},
		{
			"buffer":0,
			"byteLength":2016,
			"byteOffset":75788,
			"target":34962
		},
		{
			"buffer":0,
			"byteLength":840,
			"byteOffset":77804,
			"target":34963
		},
		{
			"buffer":0,
			"byteLength":2184,
			"byteOffset":78644,
			"target":34962
		},
		{
			"buffer":0,
			"byteLength":2184,
			"byteOffset":80828,
			"target":34962
		},
		{
			"buffer":0,
			"byteLength":1456,
			"byteOffset":83012,
			"target":34962
		},
		{
			"buffer":0,
			"byteLength":600,
			"byteOffset":84468,
			"target":34963
		},
		{
			"buffer":0,
			"byteLength":2856,
			"byteOffset":85068,
			"target":34962
		},
		{
			"buffer":0,
			"byteLength":2856,
			"byteOffset":87924,
			"target":34962
		},
		{
			"buffer":0,
			"byteLength":1904,
			"byteOffset":90780,
			"target":34962
		},
		{
			"buffer":0,
			"byteLength":816,
			"byteOffset":92684,
			"target":34963
		},
		{
			"buffer":0,
			"byteLength":4248,
			"byteOffset":93500,
			"target":34962
		},
		{
			"buffer":0,
			"byteLength":4248,
			"byteOffset":97748,
			"target":34962
		},
		{
			"buffer":0,
			"byteLength":2832,
			"byteOffset":101996,
			"target":34962
		},
		{
			"buffer":0,
			"byteLength":1152,
			"byteOffset":104828,
			"target":34963
		},
		{
			"buffer":0,
			"byteLength":3864,
			"byteOffset":105980,
			"target":34962
		},
		{
			"buffer":0,
			"byteLength":3864,
			"byteOffset":109844,
			"target":34962
		},
		{
			"buffer":0,
			"byteLength":2576,
			"byteOffset":113708,
			"target":34962
		},
		{
			"buffer":0,
			"byteLength":1080,
			"byteOffset":116284,
			"target":34963
		}
	],
	"buffers":[
		{
			"byteLength":117364,
			"uri":"title%20screen%20letters.bin"
		}
	]
}
