{
	"asset":{
		"generator":"Khronos glTF Blender I/O v4.4.56",
		"version":"2.0"
	},
	"scene":0,
	"scenes":[
		{
			"name":"Scene",
			"nodes":[
				0,
				1,
				2,
				3,
				4,
				5,
				6,
				7,
				8,
				9,
				10,
				11,
				12,
				13,
				14
			]
		}
	],
	"nodes":[
		{
			"mesh":0,
			"name":"A",
			"translation":[
				-0.5948365330696106,
				0.07640395313501358,
				-0.8238250613212585
			]
		},
		{
			"mesh":1,
			"name":"T1",
			"translation":[
				-0.2558884918689728,
				0.07463710010051727,
				-0.984575629234314
			]
		},
		{
			"mesh":2,
			"name":"T2",
			"translation":[
				0.09810377657413483,
				0.07419871538877487,
				-0.9534255862236023
			]
		},
		{
			"mesh":3,
			"name":"E1",
			"translation":[
				0.4603334069252014,
				0.07419867813587189,
				-0.9238142967224121
			]
		},
		{
			"mesh":4,
			"name":"N",
			"translation":[
				0.8062320947647095,
				0.07387316226959229,
				-0.8898757696151733
			]
		},
		{
			"mesh":5,
			"name":"T3",
			"translation":[
				1.19454824924469,
				0.07543940097093582,
				-0.9920961260795593
			]
		},
		{
			"mesh":6,
			"name":"I",
			"translation":[
				1.480217695236206,
				0.07442780584096909,
				-0.8896650671958923
			]
		},
		{
			"mesh":7,
			"name":"V",
			"translation":[
				1.7411391735076904,
				0.07393022626638412,
				-1.012335181236267
			]
		},
		{
			"mesh":8,
			"name":"E2",
			"translation":[
				2.135953187942505,
				0.07419867813587189,
				-0.9238142967224121
			]
		},
		{
			"mesh":9,
			"name":"E3",
			"translation":[
				-0.002119078068062663,
				0.08711618185043335,
				-0.2730634808540344
			]
		},
		{
			"mesh":10,
			"name":"E4",
			"translation":[
				1.4976314306259155,
				0.07419867813587189,
				-0.23683519661426544
			]
		},
		{
			"mesh":11,
			"name":"L",
			"translation":[
				0.4441128373146057,
				0.07488507032394409,
				-0.16352063417434692
			]
		},
		{
			"mesh":12,
			"name":"P",
			"translation":[
				0.9203780889511108,
				0.07671435177326202,
				-0.29228708148002625
			]
		},
		{
			"mesh":13,
			"name":"R",
			"translation":[
				2.0070509910583496,
				0.07493757456541061,
				-0.2234380841255188
			]
		},
		{
			"mesh":14,
			"name":"H",
			"translation":[
				-0.5705221891403198,
				0.07718341797590256,
				-0.2062792330980301
			]
		}
	],
	"materials":[
		{
			"doubleSided":true,
			"name":"Material.001",
			"pbrMetallicRoughness":{
				"baseColorFactor":[
					0.41319969296455383,
					0.32933667302131653,
					0.05473397672176361,
					1
				],
				"metallicFactor":0.8833333253860474,
				"roughnessFactor":0.1899999976158142
			}
		},
		{
			"doubleSided":true,
			"name":"Material.002",
			"pbrMetallicRoughness":{
				"baseColorFactor":[
					0.41319969296455383,
					0.32933667302131653,
					0.05473397672176361,
					1
				],
				"metallicFactor":0.8833333253860474,
				"roughnessFactor":0.1899999976158142
			}
		},
		{
			"doubleSided":true,
			"name":"Material.003",
			"pbrMetallicRoughness":{
				"baseColorFactor":[
					0.41319969296455383,
					0.32933667302131653,
					0.05473397672176361,
					1
				],
				"metallicFactor":0.8833333253860474,
				"roughnessFactor":0.1899999976158142
			}
		},
		{
			"doubleSided":true,
			"name":"Material.004",
			"pbrMetallicRoughness":{
				"baseColorFactor":[
					0.41319969296455383,
					0.32933667302131653,
					0.05473397672176361,
					1
				],
				"metallicFactor":0.8833333253860474,
				"roughnessFactor":0.1899999976158142
			}
		},
		{
			"doubleSided":true,
			"name":"Material.005",
			"pbrMetallicRoughness":{
				"baseColorFactor":[
					0.41319969296455383,
					0.32933667302131653,
					0.05473397672176361,
					1
				],
				"metallicFactor":0.8833333253860474,
				"roughnessFactor":0.1899999976158142
			}
		},
		{
			"doubleSided":true,
			"name":"Material.006",
			"pbrMetallicRoughness":{
				"baseColorFactor":[
					0.41319969296455383,
					0.32933667302131653,
					0.05473397672176361,
					1
				],
				"metallicFactor":0.8833333253860474,
				"roughnessFactor":0.1899999976158142
			}
		}
	],
	"meshes":[
		{
			"name":"Cube.001",
			"primitives":[
				{
					"attributes":{
						"POSITION":0,
						"NORMAL":1,
						"TEXCOORD_0":2
					},
					"indices":3,
					"material":0
				}
			]
		},
		{
			"name":"Plane.001",
			"primitives":[
				{
					"attributes":{
						"POSITION":4,
						"NORMAL":5,
						"TEXCOORD_0":6
					},
					"indices":7,
					"material":0
				}
			]
		},
		{
			"name":"Plane.002",
			"primitives":[
				{
					"attributes":{
						"POSITION":8,
						"NORMAL":9,
						"TEXCOORD_0":10
					},
					"indices":11,
					"material":1
				}
			]
		},
		{
			"name":"Plane.003",
			"primitives":[
				{
					"attributes":{
						"POSITION":12,
						"NORMAL":13,
						"TEXCOORD_0":14
					},
					"indices":15,
					"material":0
				}
			]
		},
		{
			"name":"Plane.004",
			"primitives":[
				{
					"attributes":{
						"POSITION":16,
						"NORMAL":17,
						"TEXCOORD_0":18
					},
					"indices":19,
					"material":0
				}
			]
		},
		{
			"name":"Plane.005",
			"primitives":[
				{
					"attributes":{
						"POSITION":20,
						"NORMAL":21,
						"TEXCOORD_0":22
					},
					"indices":23,
					"material":2
				}
			]
		},
		{
			"name":"Plane.006",
			"primitives":[
				{
					"attributes":{
						"POSITION":24,
						"NORMAL":25,
						"TEXCOORD_0":26
					},
					"indices":27,
					"material":0
				}
			]
		},
		{
			"name":"Plane.007",
			"primitives":[
				{
					"attributes":{
						"POSITION":28,
						"NORMAL":29,
						"TEXCOORD_0":30
					},
					"indices":31,
					"material":0
				}
			]
		},
		{
			"name":"Plane.008",
			"primitives":[
				{
					"attributes":{
						"POSITION":32,
						"NORMAL":33,
						"TEXCOORD_0":34
					},
					"indices":35,
					"material":3
				}
			]
		},
		{
			"name":"Plane.009",
			"primitives":[
				{
					"attributes":{
						"POSITION":36,
						"NORMAL":37,
						"TEXCOORD_0":38
					},
					"indices":39,
					"material":4
				}
			]
		},
		{
			"name":"Plane.010",
			"primitives":[
				{
					"attributes":{
						"POSITION":40,
						"NORMAL":41,
						"TEXCOORD_0":42
					},
					"indices":43,
					"material":5
				}
			]
		},
		{
			"name":"Plane.011",
			"primitives":[
				{
					"attributes":{
						"POSITION":44,
						"NORMAL":45,
						"TEXCOORD_0":46
					},
					"indices":47,
					"material":0
				}
			]
		},
		{
			"name":"Plane.012",
			"primitives":[
				{
					"attributes":{
						"POSITION":48,
						"NORMAL":49,
						"TEXCOORD_0":50
					},
					"indices":51,
					"material":0
				}
			]
		},
		{
			"name":"Plane.013",
			"primitives":[
				{
					"attributes":{
						"POSITION":52,
						"NORMAL":53,
						"TEXCOORD_0":54
					},
					"indices":55,
					"material":0
				}
			]
		},
		{
			"name":"Plane.014",
			"primitives":[
				{
					"attributes":{
						"POSITION":56,
						"NORMAL":57,
						"TEXCOORD_0":58
					},
					"indices":59,
					"material":0
				}
			]
		}
	],
	"accessors":[
		{
			"bufferView":0,
			"componentType":5126,
			"count":220,
			"max":[
				0.197646826505661,
				0.07255605608224869,
				0.2362779974937439
			],
			"min":[
				-0.2130301594734192,
				-0.07640395313501358,
				-0.3367907404899597
			],
			"type":"VEC3"
		},
		{
			"bufferView":1,
			"componentType":5126,
			"count":220,
			"type":"VEC3"
		},
		{
			"bufferView":2,
			"componentType":5126,
			"count":220,
			"type":"VEC2"
		},
		{
			"bufferView":3,
			"componentType":5123,
			"count":366,
			"type":"SCALAR"
		},
		{
			"bufferView":4,
			"componentType":5126,
			"count":174,
			"max":[
				0.17530648410320282,
				0.07463723421096802,
				0.30983543395996094
			],
			"min":[
				-0.24360442161560059,
				-0.07463710010051727,
				-0.28019094467163086
			],
			"type":"VEC3"
		},
		{
			"bufferView":5,
			"componentType":5126,
			"count":174,
			"type":"VEC3"
		},
		{
			"bufferView":6,
			"componentType":5126,
			"count":174,
			"type":"VEC2"
		},
		{
			"bufferView":7,
			"componentType":5123,
			"count":276,
			"type":"SCALAR"
		},
		{
			"bufferView":8,
			"componentType":5126,
			"count":168,
			"max":[
				0.1392064243555069,
				0.07419878989458084,
				0.24763959646224976
			],
			"min":[
				-0.1949230283498764,
				-0.07419871538877487,
				-0.2238805890083313
			],
			"type":"VEC3"
		},
		{
			"bufferView":9,
			"componentType":5126,
			"count":168,
			"type":"VEC3"
		},
		{
			"bufferView":10,
			"componentType":5126,
			"count":168,
			"type":"VEC2"
		},
		{
			"bufferView":11,
			"componentType":5123,
			"count":276,
			"type":"SCALAR"
		},
		{
			"bufferView":12,
			"componentType":5126,
			"count":252,
			"max":[
				0.13608986139297485,
				0.07419882714748383,
				0.2677527666091919
			],
			"min":[
				-0.18837785720825195,
				-0.07419867068529129,
				-0.2736375331878662
			],
			"type":"VEC3"
		},
		{
			"bufferView":13,
			"componentType":5126,
			"count":252,
			"type":"VEC3"
		},
		{
			"bufferView":14,
			"componentType":5126,
			"count":252,
			"type":"VEC2"
		},
		{
			"bufferView":15,
			"componentType":5123,
			"count":420,
			"type":"SCALAR"
		},
		{
			"bufferView":16,
			"componentType":5126,
			"count":270,
			"max":[
				0.20309138298034668,
				0.07360629737377167,
				0.2417389154434204
			],
			"min":[
				-0.17117780447006226,
				-0.07360634207725525,
				-0.32206737995147705
			],
			"type":"VEC3"
		},
		{
			"bufferView":17,
			"componentType":5126,
			"count":270,
			"type":"VEC3"
		},
		{
			"bufferView":18,
			"componentType":5126,
			"count":270,
			"type":"VEC2"
		},
		{
			"bufferView":19,
			"componentType":5123,
			"count":444,
			"type":"SCALAR"
		},
		{
			"bufferView":20,
			"componentType":5126,
			"count":172,
			"max":[
				0.23674476146697998,
				0.07463716715574265,
				0.3136245608329773
			],
			"min":[
				-0.203119158744812,
				-0.07463717460632324,
				-0.23252898454666138
			],
			"type":"VEC3"
		},
		{
			"bufferView":21,
			"componentType":5126,
			"count":172,
			"type":"VEC3"
		},
		{
			"bufferView":22,
			"componentType":5126,
			"count":172,
			"type":"VEC2"
		},
		{
			"bufferView":23,
			"componentType":5123,
			"count":276,
			"type":"SCALAR"
		},
		{
			"bufferView":24,
			"componentType":5126,
			"count":104,
			"max":[
				0.06179654598236084,
				0.07415378838777542,
				0.23526960611343384
			],
			"min":[
				-0.07960343360900879,
				-0.0741538405418396,
				-0.28973573446273804
			],
			"type":"VEC3"
		},
		{
			"bufferView":25,
			"componentType":5126,
			"count":104,
			"type":"VEC3"
		},
		{
			"bufferView":26,
			"componentType":5126,
			"count":104,
			"type":"VEC2"
		},
		{
			"bufferView":27,
			"componentType":5123,
			"count":156,
			"type":"SCALAR"
		},
		{
			"bufferView":28,
			"componentType":5126,
			"count":176,
			"max":[
				0.18229985237121582,
				0.07528213411569595,
				0.3631649613380432
			],
			"min":[
				-0.1726149320602417,
				-0.07550055533647537,
				-0.23652005195617676
			],
			"type":"VEC3"
		},
		{
			"bufferView":29,
			"componentType":5126,
			"count":176,
			"type":"VEC3"
		},
		{
			"bufferView":30,
			"componentType":5126,
			"count":176,
			"type":"VEC2"
		},
		{
			"bufferView":31,
			"componentType":5123,
			"count":276,
			"type":"SCALAR"
		},
		{
			"bufferView":32,
			"componentType":5126,
			"count":258,
			"max":[
				0.13609004020690918,
				0.07419882714748383,
				0.2677527666091919
			],
			"min":[
				-0.18837761878967285,
				-0.07419867068529129,
				-0.2736375331878662
			],
			"type":"VEC3"
		},
		{
			"bufferView":33,
			"componentType":5126,
			"count":258,
			"type":"VEC3"
		},
		{
			"bufferView":34,
			"componentType":5126,
			"count":258,
			"type":"VEC2"
		},
		{
			"bufferView":35,
			"componentType":5123,
			"count":420,
			"type":"SCALAR"
		},
		{
			"bufferView":36,
			"componentType":5126,
			"count":252,
			"max":[
				0.21373145282268524,
				0.07419872283935547,
				0.36914095282554626
			],
			"min":[
				-0.27599233388900757,
				-0.07419877499341965,
				-0.3775790333747864
			],
			"type":"VEC3"
		},
		{
			"bufferView":37,
			"componentType":5126,
			"count":252,
			"type":"VEC3"
		},
		{
			"bufferView":38,
			"componentType":5126,
			"count":252,
			"type":"VEC2"
		},
		{
			"bufferView":39,
			"componentType":5123,
			"count":420,
			"type":"SCALAR"
		},
		{
			"bufferView":40,
			"componentType":5126,
			"count":252,
			"max":[
				0.18159723281860352,
				0.07419882714748383,
				0.3801034688949585
			],
			"min":[
				-0.22386133670806885,
				-0.07419867068529129,
				-0.35259121656417847
			],
			"type":"VEC3"
		},
		{
			"bufferView":41,
			"componentType":5126,
			"count":252,
			"type":"VEC3"
		},
		{
			"bufferView":42,
			"componentType":5126,
			"count":252,
			"type":"VEC2"
		},
		{
			"bufferView":43,
			"componentType":5123,
			"count":420,
			"type":"SCALAR"
		},
		{
			"bufferView":44,
			"componentType":5126,
			"count":182,
			"max":[
				0.24319988489151,
				0.07488153874874115,
				0.30625295639038086
			],
			"min":[
				-0.1847432553768158,
				-0.07488507032394409,
				-0.41579562425613403
			],
			"type":"VEC3"
		},
		{
			"bufferView":45,
			"componentType":5126,
			"count":182,
			"type":"VEC3"
		},
		{
			"bufferView":46,
			"componentType":5126,
			"count":182,
			"type":"VEC2"
		},
		{
			"bufferView":47,
			"componentType":5123,
			"count":300,
			"type":"SCALAR"
		},
		{
			"bufferView":48,
			"componentType":5126,
			"count":242,
			"max":[
				0.2745417356491089,
				0.07473121583461761,
				0.4403857886791229
			],
			"min":[
				-0.24595367908477783,
				-0.07473124563694,
				-0.32989248633384705
			],
			"type":"VEC3"
		},
		{
			"bufferView":49,
			"componentType":5126,
			"count":242,
			"type":"VEC3"
		},
		{
			"bufferView":50,
			"componentType":5126,
			"count":242,
			"type":"VEC2"
		},
		{
			"bufferView":51,
			"componentType":5123,
			"count":408,
			"type":"SCALAR"
		},
		{
			"bufferView":52,
			"componentType":5126,
			"count":368,
			"max":[
				0.2597503662109375,
				0.07377628237009048,
				0.34860995411872864
			],
			"min":[
				-0.2708151340484619,
				-0.07426555454730988,
				-0.37810713052749634
			],
			"type":"VEC3"
		},
		{
			"bufferView":53,
			"componentType":5126,
			"count":368,
			"type":"VEC3"
		},
		{
			"bufferView":54,
			"componentType":5126,
			"count":368,
			"type":"VEC2"
		},
		{
			"bufferView":55,
			"componentType":5123,
			"count":576,
			"type":"SCALAR"
		},
		{
			"bufferView":56,
			"componentType":5126,
			"count":322,
			"max":[
				0.28530988097190857,
				0.07379414886236191,
				0.3623387813568115
			],
			"min":[
				-0.2325381636619568,
				-0.07359576970338821,
				-0.3612765669822693
			],
			"type":"VEC3"
		},
		{
			"bufferView":57,
			"componentType":5126,
			"count":322,
			"type":"VEC3"
		},
		{
			"bufferView":58,
			"componentType":5126,
			"count":322,
			"type":"VEC2"
		},
		{
			"bufferView":59,
			"componentType":5123,
			"count":540,
			"type":"SCALAR"
		}
	],
	"bufferViews":[
		{
			"buffer":0,
			"byteLength":2640,
			"byteOffset":0,
			"target":34962
		},
		{
			"buffer":0,
			"byteLength":2640,
			"byteOffset":2640,
			"target":34962
		},
		{
			"buffer":0,
			"byteLength":1760,
			"byteOffset":5280,
			"target":34962
		},
		{
			"buffer":0,
			"byteLength":732,
			"byteOffset":7040,
			"target":34963
		},
		{
			"buffer":0,
			"byteLength":2088,
			"byteOffset":7772,
			"target":34962
		},
		{
			"buffer":0,
			"byteLength":2088,
			"byteOffset":9860,
			"target":34962
		},
		{
			"buffer":0,
			"byteLength":1392,
			"byteOffset":11948,
			"target":34962
		},
		{
			"buffer":0,
			"byteLength":552,
			"byteOffset":13340,
			"target":34963
		},
		{
			"buffer":0,
			"byteLength":2016,
			"byteOffset":13892,
			"target":34962
		},
		{
			"buffer":0,
			"byteLength":2016,
			"byteOffset":15908,
			"target":34962
		},
		{
			"buffer":0,
			"byteLength":1344,
			"byteOffset":17924,
			"target":34962
		},
		{
			"buffer":0,
			"byteLength":552,
			"byteOffset":19268,
			"target":34963
		},
		{
			"buffer":0,
			"byteLength":3024,
			"byteOffset":19820,
			"target":34962
		},
		{
			"buffer":0,
			"byteLength":3024,
			"byteOffset":22844,
			"target":34962
		},
		{
			"buffer":0,
			"byteLength":2016,
			"byteOffset":25868,
			"target":34962
		},
		{
			"buffer":0,
			"byteLength":840,
			"byteOffset":27884,
			"target":34963
		},
		{
			"buffer":0,
			"byteLength":3240,
			"byteOffset":28724,
			"target":34962
		},
		{
			"buffer":0,
			"byteLength":3240,
			"byteOffset":31964,
			"target":34962
		},
		{
			"buffer":0,
			"byteLength":2160,
			"byteOffset":35204,
			"target":34962
		},
		{
			"buffer":0,
			"byteLength":888,
			"byteOffset":37364,
			"target":34963
		},
		{
			"buffer":0,
			"byteLength":2064,
			"byteOffset":38252,
			"target":34962
		},
		{
			"buffer":0,
			"byteLength":2064,
			"byteOffset":40316,
			"target":34962
		},
		{
			"buffer":0,
			"byteLength":1376,
			"byteOffset":42380,
			"target":34962
		},
		{
			"buffer":0,
			"byteLength":552,
			"byteOffset":43756,
			"target":34963
		},
		{
			"buffer":0,
			"byteLength":1248,
			"byteOffset":44308,
			"target":34962
		},
		{
			"buffer":0,
			"byteLength":1248,
			"byteOffset":45556,
			"target":34962
		},
		{
			"buffer":0,
			"byteLength":832,
			"byteOffset":46804,
			"target":34962
		},
		{
			"buffer":0,
			"byteLength":312,
			"byteOffset":47636,
			"target":34963
		},
		{
			"buffer":0,
			"byteLength":2112,
			"byteOffset":47948,
			"target":34962
		},
		{
			"buffer":0,
			"byteLength":2112,
			"byteOffset":50060,
			"target":34962
		},
		{
			"buffer":0,
			"byteLength":1408,
			"byteOffset":52172,
			"target":34962
		},
		{
			"buffer":0,
			"byteLength":552,
			"byteOffset":53580,
			"target":34963
		},
		{
			"buffer":0,
			"byteLength":3096,
			"byteOffset":54132,
			"target":34962
		},
		{
			"buffer":0,
			"byteLength":3096,
			"byteOffset":57228,
			"target":34962
		},
		{
			"buffer":0,
			"byteLength":2064,
			"byteOffset":60324,
			"target":34962
		},
		{
			"buffer":0,
			"byteLength":840,
			"byteOffset":62388,
			"target":34963
		},
		{
			"buffer":0,
			"byteLength":3024,
			"byteOffset":63228,
			"target":34962
		},
		{
			"buffer":0,
			"byteLength":3024,
			"byteOffset":66252,
			"target":34962
		},
		{
			"buffer":0,
			"byteLength":2016,
			"byteOffset":69276,
			"target":34962
		},
		{
			"buffer":0,
			"byteLength":840,
			"byteOffset":71292,
			"target":34963
		},
		{
			"buffer":0,
			"byteLength":3024,
			"byteOffset":72132,
			"target":34962
		},
		{
			"buffer":0,
			"byteLength":3024,
			"byteOffset":75156,
			"target":34962
		},
		{
			"buffer":0,
			"byteLength":2016,
			"byteOffset":78180,
			"target":34962
		},
		{
			"buffer":0,
			"byteLength":840,
			"byteOffset":80196,
			"target":34963
		},
		{
			"buffer":0,
			"byteLength":2184,
			"byteOffset":81036,
			"target":34962
		},
		{
			"buffer":0,
			"byteLength":2184,
			"byteOffset":83220,
			"target":34962
		},
		{
			"buffer":0,
			"byteLength":1456,
			"byteOffset":85404,
			"target":34962
		},
		{
			"buffer":0,
			"byteLength":600,
			"byteOffset":86860,
			"target":34963
		},
		{
			"buffer":0,
			"byteLength":2904,
			"byteOffset":87460,
			"target":34962
		},
		{
			"buffer":0,
			"byteLength":2904,
			"byteOffset":90364,
			"target":34962
		},
		{
			"buffer":0,
			"byteLength":1936,
			"byteOffset":93268,
			"target":34962
		},
		{
			"buffer":0,
			"byteLength":816,
			"byteOffset":95204,
			"target":34963
		},
		{
			"buffer":0,
			"byteLength":4416,
			"byteOffset":96020,
			"target":34962
		},
		{
			"buffer":0,
			"byteLength":4416,
			"byteOffset":100436,
			"target":34962
		},
		{
			"buffer":0,
			"byteLength":2944,
			"byteOffset":104852,
			"target":34962
		},
		{
			"buffer":0,
			"byteLength":1152,
			"byteOffset":107796,
			"target":34963
		},
		{
			"buffer":0,
			"byteLength":3864,
			"byteOffset":108948,
			"target":34962
		},
		{
			"buffer":0,
			"byteLength":3864,
			"byteOffset":112812,
			"target":34962
		},
		{
			"buffer":0,
			"byteLength":2576,
			"byteOffset":116676,
			"target":34962
		},
		{
			"buffer":0,
			"byteLength":1080,
			"byteOffset":119252,
			"target":34963
		}
	],
	"buffers":[
		{
			"byteLength":120332,
			"uri":"title%20screen%20letters.bin"
		}
	]
}
