{
	"asset":{
		"generator":"Khronos glTF Blender I/O v5.1.19",
		"version":"2.0"
	},
	"scene":0,
	"scenes":[
		{
			"name":"Scene",
			"nodes":[
				0,
				1
			]
		}
	],
	"nodes":[
		{
			"mesh":0,
			"name":"Cylinder"
		},
		{
			"mesh":1,
			"name":"Torus"
		}
	],
	"materials":[
		{
			"doubleSided":true,
			"name":"Material.002",
			"pbrMetallicRoughness":{
				"baseColorFactor":[
					0.3324548304080963,
					0.26613110303878784,
					0.8000229597091675,
					1
				],
				"metallicFactor":0.476666659116745,
				"roughnessFactor":0.09333333373069763
			}
		},
		{
			"doubleSided":true,
			"name":"Material.001",
			"pbrMetallicRoughness":{
				"baseColorFactor":[
					0.6890416145324707,
					0.8000156879425049,
					0.43157142400741577,
					1
				],
				"metallicFactor":0
			}
		}
	],
	"meshes":[
		{
			"name":"Cylinder",
			"primitives":[
				{
					"attributes":{
						"POSITION":0,
						"NORMAL":1,
						"TEXCOORD_0":2
					},
					"indices":3,
					"material":0
				}
			]
		},
		{
			"name":"Torus",
			"primitives":[
				{
					"attributes":{
						"POSITION":4,
						"NORMAL":5,
						"TEXCOORD_0":6
					},
					"indices":7,
					"material":1
				}
			]
		}
	],
	"accessors":[
		{
			"bufferView":0,
			"componentType":5126,
			"count":156,
			"max":[
				0.9363086819648743,
				3.4752931594848633,
				1.0811561346054077
			],
			"min":[
				-0.9363086819648743,
				-0.03414537012577057,
				-1.0811561346054077
			],
			"type":"VEC3"
		},
		{
			"bufferView":1,
			"componentType":5126,
			"count":156,
			"type":"VEC3"
		},
		{
			"bufferView":2,
			"componentType":5126,
			"count":156,
			"type":"VEC2"
		},
		{
			"bufferView":3,
			"componentType":5123,
			"count":240,
			"type":"SCALAR"
		},
		{
			"bufferView":4,
			"componentType":5126,
			"count":96,
			"max":[
				1.8489629030227661,
				6.605932712554932,
				2.134998321533203
			],
			"min":[
				-1.8489631414413452,
				3.8237509727478027,
				-2.134998321533203
			],
			"type":"VEC3"
		},
		{
			"bufferView":5,
			"componentType":5126,
			"count":96,
			"type":"VEC3"
		},
		{
			"bufferView":6,
			"componentType":5126,
			"count":96,
			"type":"VEC2"
		},
		{
			"bufferView":7,
			"componentType":5123,
			"count":144,
			"type":"SCALAR"
		}
	],
	"bufferViews":[
		{
			"buffer":0,
			"byteLength":1872,
			"byteOffset":0,
			"target":34962
		},
		{
			"buffer":0,
			"byteLength":1872,
			"byteOffset":1872,
			"target":34962
		},
		{
			"buffer":0,
			"byteLength":1248,
			"byteOffset":3744,
			"target":34962
		},
		{
			"buffer":0,
			"byteLength":480,
			"byteOffset":4992,
			"target":34963
		},
		{
			"buffer":0,
			"byteLength":1152,
			"byteOffset":5472,
			"target":34962
		},
		{
			"buffer":0,
			"byteLength":1152,
			"byteOffset":6624,
			"target":34962
		},
		{
			"buffer":0,
			"byteLength":768,
			"byteOffset":7776,
			"target":34962
		},
		{
			"buffer":0,
			"byteLength":288,
			"byteOffset":8544,
			"target":34963
		}
	],
	"buffers":[
		{
			"byteLength":8832,
			"uri":"lamp.bin"
		}
	]
}
