{
	"asset":{
		"generator":"Khronos glTF Blender I/O v5.1.19",
		"version":"2.0"
	},
	"scene":0,
	"scenes":[
		{
			"name":"Scene",
			"nodes":[
				0,
				1,
				2,
				3,
				4
			]
		}
	],
	"nodes":[
		{
			"mesh":0,
			"name":"Cube"
		},
		{
			"mesh":1,
			"name":"Cube.001"
		},
		{
			"mesh":2,
			"name":"Cube.002"
		},
		{
			"mesh":3,
			"name":"Cylinder",
			"rotation":[
				0,
				0,
				-0.008164559490978718,
				0.9999666810035706
			]
		},
		{
			"mesh":4,
			"name":"Cylinder.001",
			"rotation":[
				0,
				0,
				-0.008164559490978718,
				0.9999666810035706
			]
		}
	],
	"materials":[
		{
			"doubleSided":true,
			"name":"Material",
			"pbrMetallicRoughness":{
				"baseColorFactor":[
					0.1706383228302002,
					0.07121855765581131,
					0.028605498373508453,
					1
				],
				"metallicFactor":0
			}
		},
		{
			"doubleSided":true,
			"name":"Material.001",
			"pbrMetallicRoughness":{
				"baseColorFactor":[
					0.8000074625015259,
					0,
					0.002094593830406666,
					1
				],
				"metallicFactor":0,
				"roughnessFactor":0.5
			}
		},
		{
			"doubleSided":true,
			"name":"Material.002",
			"pbrMetallicRoughness":{
				"baseColorFactor":[
					0.8000074625015259,
					0,
					0.002094593830406666,
					1
				],
				"metallicFactor":0,
				"roughnessFactor":0.5
			}
		},
		{
			"doubleSided":true,
			"name":"Material.003",
			"pbrMetallicRoughness":{
				"baseColorFactor":[
					0,
					0,
					0,
					1
				],
				"metallicFactor":0
			}
		},
		{
			"doubleSided":true,
			"name":"Material.004",
			"pbrMetallicRoughness":{
				"baseColorFactor":[
					0,
					0,
					0,
					1
				],
				"metallicFactor":0
			}
		}
	],
	"meshes":[
		{
			"name":"Cube",
			"primitives":[
				{
					"attributes":{
						"POSITION":0,
						"NORMAL":1,
						"TEXCOORD_0":2
					},
					"indices":3,
					"material":0
				}
			]
		},
		{
			"name":"Cube.001",
			"primitives":[
				{
					"attributes":{
						"POSITION":4,
						"NORMAL":5,
						"TEXCOORD_0":6
					},
					"indices":7,
					"material":1
				}
			]
		},
		{
			"name":"Cube.002",
			"primitives":[
				{
					"attributes":{
						"POSITION":8,
						"NORMAL":9,
						"TEXCOORD_0":10
					},
					"indices":7,
					"material":2
				}
			]
		},
		{
			"name":"Cylinder",
			"primitives":[
				{
					"attributes":{
						"POSITION":11,
						"NORMAL":12,
						"TEXCOORD_0":13
					},
					"indices":14,
					"material":3
				}
			]
		},
		{
			"name":"Cylinder.001",
			"primitives":[
				{
					"attributes":{
						"POSITION":15,
						"NORMAL":16,
						"TEXCOORD_0":17
					},
					"indices":18,
					"material":4
				}
			]
		}
	],
	"accessors":[
		{
			"bufferView":0,
			"componentType":5126,
			"count":224,
			"max":[
				0.7818260788917542,
				6.577127456665039,
				3.8745675086975098
			],
			"min":[
				-0.6067019104957581,
				0.4162168502807617,
				-2.7078561782836914
			],
			"type":"VEC3"
		},
		{
			"bufferView":1,
			"componentType":5126,
			"count":224,
			"type":"VEC3"
		},
		{
			"bufferView":2,
			"componentType":5126,
			"count":224,
			"type":"VEC2"
		},
		{
			"bufferView":3,
			"componentType":5123,
			"count":438,
			"type":"SCALAR"
		},
		{
			"bufferView":4,
			"componentType":5126,
			"count":78,
			"max":[
				0.8076245188713074,
				5.697556495666504,
				3.079509973526001
			],
			"min":[
				0.792167603969574,
				5.160061359405518,
				2.5420150756835938
			],
			"type":"VEC3"
		},
		{
			"bufferView":5,
			"componentType":5126,
			"count":78,
			"type":"VEC3"
		},
		{
			"bufferView":6,
			"componentType":5126,
			"count":78,
			"type":"VEC2"
		},
		{
			"bufferView":7,
			"componentType":5123,
			"count":132,
			"type":"SCALAR"
		},
		{
			"bufferView":8,
			"componentType":5126,
			"count":78,
			"max":[
				-0.6145846247673035,
				5.697556495666504,
				3.079509973526001
			],
			"min":[
				-0.6300415396690369,
				5.160061359405518,
				2.5420150756835938
			],
			"type":"VEC3"
		},
		{
			"bufferView":9,
			"componentType":5126,
			"count":78,
			"type":"VEC3"
		},
		{
			"bufferView":10,
			"componentType":5126,
			"count":78,
			"type":"VEC2"
		},
		{
			"bufferView":11,
			"componentType":5126,
			"count":416,
			"max":[
				0.7755323648452759,
				5.792181968688965,
				3.1626882553100586
			],
			"min":[
				0.7179902791976929,
				5.090424537658691,
				2.4609315395355225
			],
			"type":"VEC3"
		},
		{
			"bufferView":12,
			"componentType":5126,
			"count":416,
			"type":"VEC3"
		},
		{
			"bufferView":13,
			"componentType":5126,
			"count":416,
			"type":"VEC2"
		},
		{
			"bufferView":14,
			"componentType":5123,
			"count":960,
			"type":"SCALAR"
		},
		{
			"bufferView":15,
			"componentType":5126,
			"count":416,
			"max":[
				-0.7176011204719543,
				5.768406391143799,
				3.161555290222168
			],
			"min":[
				-0.7751433253288269,
				5.066648960113525,
				2.459798574447632
			],
			"type":"VEC3"
		},
		{
			"bufferView":16,
			"componentType":5126,
			"count":416,
			"type":"VEC3"
		},
		{
			"bufferView":17,
			"componentType":5126,
			"count":416,
			"type":"VEC2"
		},
		{
			"bufferView":18,
			"componentType":5123,
			"count":960,
			"type":"SCALAR"
		}
	],
	"bufferViews":[
		{
			"buffer":0,
			"byteLength":2688,
			"byteOffset":0,
			"target":34962
		},
		{
			"buffer":0,
			"byteLength":2688,
			"byteOffset":2688,
			"target":34962
		},
		{
			"buffer":0,
			"byteLength":1792,
			"byteOffset":5376,
			"target":34962
		},
		{
			"buffer":0,
			"byteLength":876,
			"byteOffset":7168,
			"target":34963
		},
		{
			"buffer":0,
			"byteLength":936,
			"byteOffset":8044,
			"target":34962
		},
		{
			"buffer":0,
			"byteLength":936,
			"byteOffset":8980,
			"target":34962
		},
		{
			"buffer":0,
			"byteLength":624,
			"byteOffset":9916,
			"target":34962
		},
		{
			"buffer":0,
			"byteLength":264,
			"byteOffset":10540,
			"target":34963
		},
		{
			"buffer":0,
			"byteLength":936,
			"byteOffset":10804,
			"target":34962
		},
		{
			"buffer":0,
			"byteLength":936,
			"byteOffset":11740,
			"target":34962
		},
		{
			"buffer":0,
			"byteLength":624,
			"byteOffset":12676,
			"target":34962
		},
		{
			"buffer":0,
			"byteLength":4992,
			"byteOffset":13300,
			"target":34962
		},
		{
			"buffer":0,
			"byteLength":4992,
			"byteOffset":18292,
			"target":34962
		},
		{
			"buffer":0,
			"byteLength":3328,
			"byteOffset":23284,
			"target":34962
		},
		{
			"buffer":0,
			"byteLength":1920,
			"byteOffset":26612,
			"target":34963
		},
		{
			"buffer":0,
			"byteLength":4992,
			"byteOffset":28532,
			"target":34962
		},
		{
			"buffer":0,
			"byteLength":4992,
			"byteOffset":33524,
			"target":34962
		},
		{
			"buffer":0,
			"byteLength":3328,
			"byteOffset":38516,
			"target":34962
		},
		{
			"buffer":0,
			"byteLength":1920,
			"byteOffset":41844,
			"target":34963
		}
	],
	"buffers":[
		{
			"byteLength":43764,
			"uri":"o-eye%27d%20deer.bin"
		}
	]
}
