{
	"asset":{
		"generator":"Khronos glTF Blender I/O v5.1.19",
		"version":"2.0"
	},
	"scene":0,
	"scenes":[
		{
			"name":"Scene",
			"nodes":[
				0
			]
		}
	],
	"nodes":[
		{
			"mesh":0,
			"name":"Sphere"
		}
	],
	"materials":[
		{
			"alphaMode":"BLEND",
			"doubleSided":true,
			"name":"Material.001",
			"pbrMetallicRoughness":{
				"baseColorFactor":[
					1,
					0.9124141931533813,
					0.8070699572563171,
					0.25
				],
				"metallicFactor":0,
				"roughnessFactor":0.5
			}
		}
	],
	"meshes":[
		{
			"name":"Sphere.001",
			"primitives":[
				{
					"attributes":{
						"POSITION":0,
						"NORMAL":1,
						"TEXCOORD_0":2
					},
					"indices":3,
					"material":0
				}
			]
		}
	],
	"accessors":[
		{
			"bufferView":0,
			"componentType":5126,
			"count":527,
			"max":[
				0.9999997019767761,
				1,
				0.9999993443489075
			],
			"min":[
				-0.9999990463256836,
				-0.9807852506637573,
				-1
			],
			"type":"VEC3"
		},
		{
			"bufferView":1,
			"componentType":5126,
			"count":527,
			"type":"VEC3"
		},
		{
			"bufferView":2,
			"componentType":5126,
			"count":527,
			"type":"VEC2"
		},
		{
			"bufferView":3,
			"componentType":5123,
			"count":2790,
			"type":"SCALAR"
		}
	],
	"bufferViews":[
		{
			"buffer":0,
			"byteLength":6324,
			"byteOffset":0,
			"target":34962
		},
		{
			"buffer":0,
			"byteLength":6324,
			"byteOffset":6324,
			"target":34962
		},
		{
			"buffer":0,
			"byteLength":4216,
			"byteOffset":12648,
			"target":34962
		},
		{
			"buffer":0,
			"byteLength":5580,
			"byteOffset":16864,
			"target":34963
		}
	],
	"buffers":[
		{
			"byteLength":22444,
			"uri":"body%20without%20organs%20planet.bin"
		}
	]
}
