{
	"asset":{
		"generator":"Khronos glTF Blender I/O v5.1.19",
		"version":"2.0"
	},
	"scene":0,
	"scenes":[
		{
			"name":"Scene",
			"nodes":[
				4
			]
		}
	],
	"nodes":[
		{
			"name":"Head",
			"rotation":[
				-1.0519560388011592e-21,
				-1.4210854715202004e-14,
				-7.105427357601002e-15,
				1
			],
			"translation":[
				8.699595033343378e-15,
				0.9176630973815918,
				-1.5816545534227018e-21
			]
		},
		{
			"children":[
				0
			],
			"name":"Neck",
			"rotation":[
				7.264885650965479e-16,
				-1.1057426263505477e-07,
				8.635014481228609e-09,
				1
			],
			"scale":[
				1,
				0.9999999403953552,
				1
			],
			"translation":[
				0,
				2.531054973602295,
				0
			]
		},
		{
			"children":[
				1
			],
			"name":"Body",
			"rotation":[
				0,
				1.3220680550318775e-08,
				1.3220680550318775e-08,
				1
			]
		},
		{
			"mesh":0,
			"name":"Cylinder",
			"skin":0
		},
		{
			"children":[
				3,
				2
			],
			"name":"Armature",
			"rotation":[
				0,
				0,
				-0.7071068286895752,
				0.7071068286895752
			]
		}
	],
	"materials":[
		{
			"doubleSided":true,
			"name":"Material.001",
			"pbrMetallicRoughness":{
				"baseColorFactor":[
					0.4999902844429016,
					0.41695213317871094,
					0.05398078262805939,
					1
				],
				"metallicFactor":0.7411167621612549,
				"roughnessFactor":0.2157360315322876
			}
		},
		{
			"doubleSided":true,
			"name":"Material.002",
			"pbrMetallicRoughness":{
				"baseColorFactor":[
					0.18106503784656525,
					0.017702549695968628,
					0.4999902844429016,
					1
				],
				"metallicFactor":0,
				"roughnessFactor":0.6319797039031982
			}
		}
	],
	"meshes":[
		{
			"name":"Cylinder.001",
			"primitives":[
				{
					"attributes":{
						"POSITION":0,
						"NORMAL":1,
						"TEXCOORD_0":2,
						"JOINTS_0":3,
						"WEIGHTS_0":4
					},
					"indices":5,
					"material":0
				},
				{
					"attributes":{
						"POSITION":6,
						"NORMAL":7,
						"TEXCOORD_0":8,
						"JOINTS_0":9,
						"WEIGHTS_0":10
					},
					"indices":11,
					"material":1
				}
			]
		}
	],
	"skins":[
		{
			"inverseBindMatrices":12,
			"joints":[
				2,
				1,
				0
			],
			"name":"Armature"
		}
	],
	"accessors":[
		{
			"bufferView":0,
			"componentType":5126,
			"count":114,
			"max":[
				4.772029876708984,
				1,
				1
			],
			"min":[
				3.4211082458496094,
				-1,
				-1
			],
			"type":"VEC3"
		},
		{
			"bufferView":1,
			"componentType":5126,
			"count":114,
			"type":"VEC3"
		},
		{
			"bufferView":2,
			"componentType":5126,
			"count":114,
			"type":"VEC2"
		},
		{
			"bufferView":3,
			"componentType":5121,
			"count":114,
			"type":"VEC4"
		},
		{
			"bufferView":4,
			"componentType":5126,
			"count":114,
			"type":"VEC4"
		},
		{
			"bufferView":5,
			"componentType":5123,
			"count":192,
			"type":"SCALAR"
		},
		{
			"bufferView":6,
			"componentType":5126,
			"count":56,
			"max":[
				2.5156197547912598,
				1.1498606204986572,
				1.1797863245010376
			],
			"min":[
				-0.0032329559326171875,
				-1.1795903444290161,
				-1.1496644020080566
			],
			"type":"VEC3"
		},
		{
			"bufferView":7,
			"componentType":5126,
			"count":56,
			"type":"VEC3"
		},
		{
			"bufferView":8,
			"componentType":5126,
			"count":56,
			"type":"VEC2"
		},
		{
			"bufferView":9,
			"componentType":5121,
			"count":56,
			"type":"VEC4"
		},
		{
			"bufferView":10,
			"componentType":5126,
			"count":56,
			"type":"VEC4"
		},
		{
			"bufferView":11,
			"componentType":5123,
			"count":114,
			"type":"SCALAR"
		},
		{
			"bufferView":12,
			"componentType":5126,
			"count":3,
			"type":"MAT4"
		}
	],
	"bufferViews":[
		{
			"buffer":0,
			"byteLength":1368,
			"byteOffset":0,
			"target":34962
		},
		{
			"buffer":0,
			"byteLength":1368,
			"byteOffset":1368,
			"target":34962
		},
		{
			"buffer":0,
			"byteLength":912,
			"byteOffset":2736,
			"target":34962
		},
		{
			"buffer":0,
			"byteLength":456,
			"byteOffset":3648,
			"target":34962
		},
		{
			"buffer":0,
			"byteLength":1824,
			"byteOffset":4104,
			"target":34962
		},
		{
			"buffer":0,
			"byteLength":384,
			"byteOffset":5928,
			"target":34963
		},
		{
			"buffer":0,
			"byteLength":672,
			"byteOffset":6312,
			"target":34962
		},
		{
			"buffer":0,
			"byteLength":672,
			"byteOffset":6984,
			"target":34962
		},
		{
			"buffer":0,
			"byteLength":448,
			"byteOffset":7656,
			"target":34962
		},
		{
			"buffer":0,
			"byteLength":224,
			"byteOffset":8104,
			"target":34962
		},
		{
			"buffer":0,
			"byteLength":896,
			"byteOffset":8328,
			"target":34962
		},
		{
			"buffer":0,
			"byteLength":228,
			"byteOffset":9224,
			"target":34963
		},
		{
			"buffer":0,
			"byteLength":192,
			"byteOffset":9452
		}
	],
	"buffers":[
		{
			"byteLength":9644,
			"uri":"king.bin"
		}
	]
}
