{
	"asset":{
		"generator":"Khronos glTF Blender I/O v5.1.19",
		"version":"2.0"
	},
	"scene":0,
	"scenes":[
		{
			"name":"Scene",
			"nodes":[
				14
			]
		}
	],
	"nodes":[
		{
			"name":"Bone.003.L",
			"rotation":[
				-0.7071067690849304,
				-1.2560739454502297e-15,
				-1.2560739454502297e-15,
				0.7071067690849304
			],
			"translation":[
				4.346351363125785e-15,
				0.8000002503395081,
				-0.7000000476837158
			]
		},
		{
			"name":"Bone.005",
			"rotation":[
				-3.330522746480824e-09,
				1.0670417438518598e-08,
				0.12209243327379227,
				0.9925187230110168
			],
			"translation":[
				-1.251271769910749e-18,
				0.19999980926513672,
				1.8545165403338615e-11
			]
		},
		{
			"children":[
				1
			],
			"name":"Bone.004",
			"rotation":[
				-8.881784197001252e-16,
				1.819797347616661e-23,
				-6.617444900424222e-24,
				1
			],
			"translation":[
				1.1363709027555754e-19,
				1.0000004768371582,
				7.432277016050648e-12
			]
		},
		{
			"name":"Bone.003.R",
			"rotation":[
				5.338507591545749e-08,
				0.7071067690849304,
				0.7071067690849304,
				5.338507591545749e-08
			],
			"translation":[
				7.93637737264843e-16,
				0.8000001311302185,
				0.6999999284744263
			]
		},
		{
			"children":[
				0,
				2,
				3
			],
			"name":"Bone.001",
			"rotation":[
				1.7763568394002505e-15,
				3.639594695233322e-23,
				-8.210140009387796e-16,
				1
			],
			"translation":[
				-5.158430648778689e-19,
				1.000000238418579,
				1.000444171950221e-11
			]
		},
		{
			"name":"Bone.006.L",
			"rotation":[
				-0.9995262622833252,
				-0.00037702114786952734,
				0.027574792504310608,
				0.01366619486361742
			],
			"scale":[
				0.9999999403953552,
				1.0000001192092896,
				1
			],
			"translation":[
				-0.02397153154015541,
				0.011680821888148785,
				0.44650501012802124
			]
		},
		{
			"name":"Bone.006.R",
			"rotation":[
				0.9995262622833252,
				0.000377020362066105,
				0.027574792504310608,
				0.013666166923940182
			],
			"scale":[
				0.9999999403953552,
				1.0000001192092896,
				1
			],
			"translation":[
				0.02397153154015541,
				0.011680861003696918,
				-0.44650498032569885
			]
		},
		{
			"children":[
				4,
				5,
				6
			],
			"name":"Bone",
			"rotation":[
				-0.5,
				0.5,
				-0.5,
				0.5
			],
			"scale":[
				1,
				0.9999999403953552,
				1
			]
		},
		{
			"mesh":0,
			"name":"body",
			"skin":0
		},
		{
			"mesh":1,
			"name":"head",
			"skin":0
		},
		{
			"mesh":2,
			"name":"left arm",
			"skin":0
		},
		{
			"mesh":3,
			"name":"left leg",
			"skin":0
		},
		{
			"mesh":4,
			"name":"right arm",
			"skin":0
		},
		{
			"mesh":5,
			"name":"right leg",
			"skin":0
		},
		{
			"children":[
				8,
				9,
				10,
				11,
				12,
				13,
				7
			],
			"name":"Armature",
			"translation":[
				-0.000284731388092041,
				0,
				-2.318000078201294
			]
		}
	],
	"materials":[
		{
			"doubleSided":true,
			"name":"fuckup 1",
			"pbrMetallicRoughness":{
				"baseColorTexture":{
					"index":0
				},
				"metallicFactor":0
			}
		}
	],
	"meshes":[
		{
			"name":"Cylinder",
			"primitives":[
				{
					"attributes":{
						"POSITION":0,
						"NORMAL":1,
						"TEXCOORD_0":2,
						"JOINTS_0":3,
						"WEIGHTS_0":4
					},
					"indices":5,
					"material":0
				},
				{
					"attributes":{
						"POSITION":6,
						"NORMAL":7,
						"TEXCOORD_0":8,
						"JOINTS_0":9,
						"WEIGHTS_0":10
					},
					"indices":11,
					"material":0
				}
			]
		},
		{
			"name":"Sphere",
			"primitives":[
				{
					"attributes":{
						"POSITION":13,
						"NORMAL":14,
						"TEXCOORD_0":15,
						"JOINTS_0":16,
						"WEIGHTS_0":17
					},
					"indices":18,
					"material":0
				},
				{
					"attributes":{
						"POSITION":19,
						"NORMAL":20,
						"TEXCOORD_0":21,
						"JOINTS_0":22,
						"WEIGHTS_0":23
					},
					"indices":24,
					"material":0
				}
			]
		},
		{
			"name":"Cube.002",
			"primitives":[
				{
					"attributes":{
						"POSITION":25,
						"NORMAL":26,
						"TEXCOORD_0":27,
						"JOINTS_0":28,
						"WEIGHTS_0":29
					},
					"indices":30,
					"material":0
				}
			]
		},
		{
			"name":"Cube.003",
			"primitives":[
				{
					"attributes":{
						"POSITION":31,
						"NORMAL":32,
						"TEXCOORD_0":33,
						"JOINTS_0":34,
						"WEIGHTS_0":35
					},
					"indices":36,
					"material":0
				}
			]
		},
		{
			"name":"Cube.001",
			"primitives":[
				{
					"attributes":{
						"POSITION":37,
						"NORMAL":38,
						"TEXCOORD_0":39,
						"JOINTS_0":40,
						"WEIGHTS_0":41
					},
					"indices":42,
					"material":0
				}
			]
		},
		{
			"name":"Cube.004",
			"primitives":[
				{
					"attributes":{
						"POSITION":43,
						"NORMAL":44,
						"TEXCOORD_0":45,
						"JOINTS_0":46,
						"WEIGHTS_0":47
					},
					"indices":48,
					"material":0
				}
			]
		}
	],
	"textures":[
		{
			"sampler":0,
			"source":0
		}
	],
	"images":[
		{
			"mimeType":"image/png",
			"name":"fuckup",
			"uri":"fuckup.png"
		}
	],
	"skins":[
		{
			"inverseBindMatrices":12,
			"joints":[
				7,
				4,
				0,
				2,
				1,
				3,
				5,
				6
			],
			"name":"Armature"
		}
	],
	"accessors":[
		{
			"bufferView":0,
			"componentType":5126,
			"count":592,
			"max":[
				5.732388019561768,
				8.430776596069336,
				1.4123218059539795
			],
			"min":[
				-1.388533592224121,
				0.6178624629974365,
				-5.10266637802124
			],
			"type":"VEC3"
		},
		{
			"bufferView":1,
			"componentType":5126,
			"count":592,
			"type":"VEC3"
		},
		{
			"bufferView":2,
			"componentType":5126,
			"count":592,
			"type":"VEC2"
		},
		{
			"bufferView":3,
			"componentType":5121,
			"count":592,
			"type":"VEC4"
		},
		{
			"bufferView":4,
			"componentType":5126,
			"count":592,
			"type":"VEC4"
		},
		{
			"bufferView":5,
			"componentType":5123,
			"count":948,
			"type":"SCALAR"
		},
		{
			"bufferView":6,
			"componentType":5126,
			"count":404,
			"max":[
				5.742122173309326,
				8.430776596069336,
				1.2892740964889526
			],
			"min":[
				-1.151624321937561,
				1.0916790962219238,
				-5.062942028045654
			],
			"type":"VEC3"
		},
		{
			"bufferView":7,
			"componentType":5126,
			"count":404,
			"type":"VEC3"
		},
		{
			"bufferView":8,
			"componentType":5126,
			"count":404,
			"type":"VEC2"
		},
		{
			"bufferView":9,
			"componentType":5121,
			"count":404,
			"type":"VEC4"
		},
		{
			"bufferView":10,
			"componentType":5126,
			"count":404,
			"type":"VEC4"
		},
		{
			"bufferView":11,
			"componentType":5123,
			"count":624,
			"type":"SCALAR"
		},
		{
			"bufferView":12,
			"componentType":5126,
			"count":8,
			"type":"MAT4"
		},
		{
			"bufferView":13,
			"componentType":5126,
			"count":208,
			"max":[
				6.056629180908203,
				8.646121978759766,
				1.3648022413253784
			],
			"min":[
				-0.7073917984962463,
				2.6967720985412598,
				-4.415777683258057
			],
			"type":"VEC3"
		},
		{
			"bufferView":14,
			"componentType":5126,
			"count":208,
			"type":"VEC3"
		},
		{
			"bufferView":15,
			"componentType":5126,
			"count":208,
			"type":"VEC2"
		},
		{
			"bufferView":16,
			"componentType":5121,
			"count":208,
			"type":"VEC4"
		},
		{
			"bufferView":17,
			"componentType":5126,
			"count":208,
			"type":"VEC4"
		},
		{
			"bufferView":18,
			"componentType":5123,
			"count":312,
			"type":"SCALAR"
		},
		{
			"bufferView":19,
			"componentType":5126,
			"count":1180,
			"max":[
				7.245919704437256,
				7.600325584411621,
				2.5761544704437256
			],
			"min":[
				-2.4655065536499023,
				1.8939967155456543,
				-6.125165939331055
			],
			"type":"VEC3"
		},
		{
			"bufferView":20,
			"componentType":5126,
			"count":1180,
			"type":"VEC3"
		},
		{
			"bufferView":21,
			"componentType":5126,
			"count":1180,
			"type":"VEC2"
		},
		{
			"bufferView":22,
			"componentType":5121,
			"count":1180,
			"type":"VEC4"
		},
		{
			"bufferView":23,
			"componentType":5126,
			"count":1180,
			"type":"VEC4"
		},
		{
			"bufferView":24,
			"componentType":5123,
			"count":1848,
			"type":"SCALAR"
		},
		{
			"bufferView":25,
			"componentType":5126,
			"count":302,
			"max":[
				5.2292866706848145,
				7.828432083129883,
				1.992825984954834
			],
			"min":[
				-0.5907379984855652,
				1.7199106216430664,
				-3.5842604637145996
			],
			"type":"VEC3"
		},
		{
			"bufferView":26,
			"componentType":5126,
			"count":302,
			"type":"VEC3"
		},
		{
			"bufferView":27,
			"componentType":5126,
			"count":302,
			"type":"VEC2"
		},
		{
			"bufferView":28,
			"componentType":5121,
			"count":302,
			"type":"VEC4"
		},
		{
			"bufferView":29,
			"componentType":5126,
			"count":302,
			"type":"VEC4"
		},
		{
			"bufferView":30,
			"componentType":5123,
			"count":468,
			"type":"SCALAR"
		},
		{
			"bufferView":31,
			"componentType":5126,
			"count":312,
			"max":[
				5.180058479309082,
				9.278157234191895,
				1.167145848274231
			],
			"min":[
				-0.7511057257652283,
				-0.3032543659210205,
				-4.508194446563721
			],
			"type":"VEC3"
		},
		{
			"bufferView":32,
			"componentType":5126,
			"count":312,
			"type":"VEC3"
		},
		{
			"bufferView":33,
			"componentType":5126,
			"count":312,
			"type":"VEC2"
		},
		{
			"bufferView":34,
			"componentType":5121,
			"count":312,
			"type":"VEC4"
		},
		{
			"bufferView":35,
			"componentType":5126,
			"count":312,
			"type":"VEC4"
		},
		{
			"bufferView":36,
			"componentType":5123,
			"count":468,
			"type":"SCALAR"
		},
		{
			"bufferView":37,
			"componentType":5126,
			"count":310,
			"max":[
				5.874815464019775,
				7.526503086090088,
				0.28987371921539307
			],
			"min":[
				-2.7306060791015625,
				0.5096561908721924,
				-5.278207778930664
			],
			"type":"VEC3"
		},
		{
			"bufferView":38,
			"componentType":5126,
			"count":310,
			"type":"VEC3"
		},
		{
			"bufferView":39,
			"componentType":5126,
			"count":310,
			"type":"VEC2"
		},
		{
			"bufferView":40,
			"componentType":5121,
			"count":310,
			"type":"VEC4"
		},
		{
			"bufferView":41,
			"componentType":5126,
			"count":310,
			"type":"VEC4"
		},
		{
			"bufferView":42,
			"componentType":5123,
			"count":468,
			"type":"SCALAR"
		},
		{
			"bufferView":43,
			"componentType":5126,
			"count":312,
			"max":[
				5.261806964874268,
				9.275473594665527,
				1.262256145477295
			],
			"min":[
				-0.9221224188804626,
				-0.3032541275024414,
				-5.230788707733154
			],
			"type":"VEC3"
		},
		{
			"bufferView":44,
			"componentType":5126,
			"count":312,
			"type":"VEC3"
		},
		{
			"bufferView":45,
			"componentType":5126,
			"count":312,
			"type":"VEC2"
		},
		{
			"bufferView":46,
			"componentType":5121,
			"count":312,
			"type":"VEC4"
		},
		{
			"bufferView":47,
			"componentType":5126,
			"count":312,
			"type":"VEC4"
		},
		{
			"bufferView":48,
			"componentType":5123,
			"count":468,
			"type":"SCALAR"
		}
	],
	"bufferViews":[
		{
			"buffer":0,
			"byteLength":7104,
			"byteOffset":0,
			"target":34962
		},
		{
			"buffer":0,
			"byteLength":7104,
			"byteOffset":7104,
			"target":34962
		},
		{
			"buffer":0,
			"byteLength":4736,
			"byteOffset":14208,
			"target":34962
		},
		{
			"buffer":0,
			"byteLength":2368,
			"byteOffset":18944,
			"target":34962
		},
		{
			"buffer":0,
			"byteLength":9472,
			"byteOffset":21312,
			"target":34962
		},
		{
			"buffer":0,
			"byteLength":1896,
			"byteOffset":30784,
			"target":34963
		},
		{
			"buffer":0,
			"byteLength":4848,
			"byteOffset":32680,
			"target":34962
		},
		{
			"buffer":0,
			"byteLength":4848,
			"byteOffset":37528,
			"target":34962
		},
		{
			"buffer":0,
			"byteLength":3232,
			"byteOffset":42376,
			"target":34962
		},
		{
			"buffer":0,
			"byteLength":1616,
			"byteOffset":45608,
			"target":34962
		},
		{
			"buffer":0,
			"byteLength":6464,
			"byteOffset":47224,
			"target":34962
		},
		{
			"buffer":0,
			"byteLength":1248,
			"byteOffset":53688,
			"target":34963
		},
		{
			"buffer":0,
			"byteLength":512,
			"byteOffset":54936
		},
		{
			"buffer":0,
			"byteLength":2496,
			"byteOffset":55448,
			"target":34962
		},
		{
			"buffer":0,
			"byteLength":2496,
			"byteOffset":57944,
			"target":34962
		},
		{
			"buffer":0,
			"byteLength":1664,
			"byteOffset":60440,
			"target":34962
		},
		{
			"buffer":0,
			"byteLength":832,
			"byteOffset":62104,
			"target":34962
		},
		{
			"buffer":0,
			"byteLength":3328,
			"byteOffset":62936,
			"target":34962
		},
		{
			"buffer":0,
			"byteLength":624,
			"byteOffset":66264,
			"target":34963
		},
		{
			"buffer":0,
			"byteLength":14160,
			"byteOffset":66888,
			"target":34962
		},
		{
			"buffer":0,
			"byteLength":14160,
			"byteOffset":81048,
			"target":34962
		},
		{
			"buffer":0,
			"byteLength":9440,
			"byteOffset":95208,
			"target":34962
		},
		{
			"buffer":0,
			"byteLength":4720,
			"byteOffset":104648,
			"target":34962
		},
		{
			"buffer":0,
			"byteLength":18880,
			"byteOffset":109368,
			"target":34962
		},
		{
			"buffer":0,
			"byteLength":3696,
			"byteOffset":128248,
			"target":34963
		},
		{
			"buffer":0,
			"byteLength":3624,
			"byteOffset":131944,
			"target":34962
		},
		{
			"buffer":0,
			"byteLength":3624,
			"byteOffset":135568,
			"target":34962
		},
		{
			"buffer":0,
			"byteLength":2416,
			"byteOffset":139192,
			"target":34962
		},
		{
			"buffer":0,
			"byteLength":1208,
			"byteOffset":141608,
			"target":34962
		},
		{
			"buffer":0,
			"byteLength":4832,
			"byteOffset":142816,
			"target":34962
		},
		{
			"buffer":0,
			"byteLength":936,
			"byteOffset":147648,
			"target":34963
		},
		{
			"buffer":0,
			"byteLength":3744,
			"byteOffset":148584,
			"target":34962
		},
		{
			"buffer":0,
			"byteLength":3744,
			"byteOffset":152328,
			"target":34962
		},
		{
			"buffer":0,
			"byteLength":2496,
			"byteOffset":156072,
			"target":34962
		},
		{
			"buffer":0,
			"byteLength":1248,
			"byteOffset":158568,
			"target":34962
		},
		{
			"buffer":0,
			"byteLength":4992,
			"byteOffset":159816,
			"target":34962
		},
		{
			"buffer":0,
			"byteLength":936,
			"byteOffset":164808,
			"target":34963
		},
		{
			"buffer":0,
			"byteLength":3720,
			"byteOffset":165744,
			"target":34962
		},
		{
			"buffer":0,
			"byteLength":3720,
			"byteOffset":169464,
			"target":34962
		},
		{
			"buffer":0,
			"byteLength":2480,
			"byteOffset":173184,
			"target":34962
		},
		{
			"buffer":0,
			"byteLength":1240,
			"byteOffset":175664,
			"target":34962
		},
		{
			"buffer":0,
			"byteLength":4960,
			"byteOffset":176904,
			"target":34962
		},
		{
			"buffer":0,
			"byteLength":936,
			"byteOffset":181864,
			"target":34963
		},
		{
			"buffer":0,
			"byteLength":3744,
			"byteOffset":182800,
			"target":34962
		},
		{
			"buffer":0,
			"byteLength":3744,
			"byteOffset":186544,
			"target":34962
		},
		{
			"buffer":0,
			"byteLength":2496,
			"byteOffset":190288,
			"target":34962
		},
		{
			"buffer":0,
			"byteLength":1248,
			"byteOffset":192784,
			"target":34962
		},
		{
			"buffer":0,
			"byteLength":4992,
			"byteOffset":194032,
			"target":34962
		},
		{
			"buffer":0,
			"byteLength":936,
			"byteOffset":199024,
			"target":34963
		}
	],
	"samplers":[
		{
			"magFilter":9729,
			"minFilter":9987
		}
	],
	"buffers":[
		{
			"byteLength":199960,
			"uri":"digfhtaiopwgfh%3Bedj.bin"
		}
	]
}
