{
	"asset":{
		"generator":"Khronos glTF Blender I/O v5.1.19",
		"version":"2.0"
	},
	"scene":0,
	"scenes":[
		{
			"name":"Scene",
			"nodes":[
				0,
				1,
				2,
				3,
				4,
				5,
				6
			]
		}
	],
	"nodes":[
		{
			"mesh":0,
			"name":"backpack",
			"translation":[
				0,
				3.191260576248169,
				-1.6088979244232178
			]
		},
		{
			"mesh":1,
			"name":"head"
		},
		{
			"mesh":2,
			"name":"body"
		},
		{
			"mesh":3,
			"name":"left arm"
		},
		{
			"mesh":4,
			"name":"right arm"
		},
		{
			"mesh":5,
			"name":"left leg"
		},
		{
			"mesh":6,
			"name":"right leg"
		}
	],
	"materials":[
		{
			"doubleSided":true,
			"name":"astronaut helmet shield",
			"pbrMetallicRoughness":{
				"baseColorFactor":[
					0.4286905527114868,
					0.4286905527114868,
					0.4286905527114868,
					1
				],
				"metallicFactor":0
			}
		},
		{
			"doubleSided":true,
			"name":"astronaut helmet shield.001",
			"pbrMetallicRoughness":{
				"baseColorFactor":[
					0.030565988272428513,
					0.030565988272428513,
					0.030565988272428513,
					1
				],
				"roughnessFactor":0
			}
		}
	],
	"meshes":[
		{
			"name":"Cube",
			"primitives":[
				{
					"attributes":{
						"POSITION":0,
						"NORMAL":1,
						"TEXCOORD_0":2
					},
					"indices":3,
					"material":0
				}
			]
		},
		{
			"name":"Sphere",
			"primitives":[
				{
					"attributes":{
						"POSITION":4,
						"NORMAL":5,
						"TEXCOORD_0":6
					},
					"indices":7,
					"material":1
				},
				{
					"attributes":{
						"POSITION":8,
						"NORMAL":9,
						"TEXCOORD_0":10
					},
					"indices":11,
					"material":0
				}
			]
		},
		{
			"name":"Cylinder",
			"primitives":[
				{
					"attributes":{
						"POSITION":12,
						"NORMAL":13,
						"TEXCOORD_0":14
					},
					"indices":15,
					"material":0
				}
			]
		},
		{
			"name":"Cube.002",
			"primitives":[
				{
					"attributes":{
						"POSITION":16,
						"NORMAL":17,
						"TEXCOORD_0":18
					},
					"indices":19,
					"material":0
				}
			]
		},
		{
			"name":"Cube.001",
			"primitives":[
				{
					"attributes":{
						"POSITION":20,
						"NORMAL":21,
						"TEXCOORD_0":22
					},
					"indices":23,
					"material":0
				}
			]
		},
		{
			"name":"Cube.003",
			"primitives":[
				{
					"attributes":{
						"POSITION":24,
						"NORMAL":25,
						"TEXCOORD_0":26
					},
					"indices":27,
					"material":0
				}
			]
		},
		{
			"name":"Cube.004",
			"primitives":[
				{
					"attributes":{
						"POSITION":28,
						"NORMAL":29,
						"TEXCOORD_0":30
					},
					"indices":19,
					"material":0
				}
			]
		}
	],
	"accessors":[
		{
			"bufferView":0,
			"componentType":5126,
			"count":24,
			"max":[
				1.1438822746276855,
				2.1757614612579346,
				1
			],
			"min":[
				-1.1438822746276855,
				-0.9213271737098694,
				0.08277404308319092
			],
			"type":"VEC3"
		},
		{
			"bufferView":1,
			"componentType":5126,
			"count":24,
			"type":"VEC3"
		},
		{
			"bufferView":2,
			"componentType":5126,
			"count":24,
			"type":"VEC2"
		},
		{
			"bufferView":3,
			"componentType":5123,
			"count":36,
			"type":"SCALAR"
		},
		{
			"bufferView":4,
			"componentType":5126,
			"count":16,
			"max":[
				0.7068216800689697,
				5.846832275390625,
				0.7673062682151794
			],
			"min":[
				-0.7073917984962463,
				4.432619094848633,
				0.2673061490058899
			],
			"type":"VEC3"
		},
		{
			"bufferView":5,
			"componentType":5126,
			"count":16,
			"type":"VEC3"
		},
		{
			"bufferView":6,
			"componentType":5126,
			"count":16,
			"type":"VEC2"
		},
		{
			"bufferView":7,
			"componentType":5123,
			"count":24,
			"type":"SCALAR"
		},
		{
			"bufferView":8,
			"componentType":5126,
			"count":96,
			"max":[
				0.999714732170105,
				6.139725685119629,
				0.4744132161140442
			],
			"min":[
				-1.0002851486206055,
				4.139725685119629,
				-1.2326935529708862
			],
			"type":"VEC3"
		},
		{
			"bufferView":9,
			"componentType":5126,
			"count":96,
			"type":"VEC3"
		},
		{
			"bufferView":10,
			"componentType":5126,
			"count":96,
			"type":"VEC2"
		},
		{
			"bufferView":11,
			"componentType":5123,
			"count":120,
			"type":"SCALAR"
		},
		{
			"bufferView":12,
			"componentType":5126,
			"count":80,
			"max":[
				0.7460039258003235,
				4.310123920440674,
				0.2790796756744385
			],
			"min":[
				-0.7465748190879822,
				2.105982780456543,
				-0.7444671392440796
			],
			"type":"VEC3"
		},
		{
			"bufferView":13,
			"componentType":5126,
			"count":80,
			"type":"VEC3"
		},
		{
			"bufferView":14,
			"componentType":5126,
			"count":80,
			"type":"VEC2"
		},
		{
			"bufferView":15,
			"componentType":5123,
			"count":132,
			"type":"SCALAR"
		},
		{
			"bufferView":16,
			"componentType":5126,
			"count":24,
			"max":[
				1.5032737255096436,
				4.143239498138428,
				-0.04036282002925873
			],
			"min":[
				0.48975250124931335,
				2.4320569038391113,
				-0.42502444982528687
			],
			"type":"VEC3"
		},
		{
			"bufferView":17,
			"componentType":5126,
			"count":24,
			"type":"VEC3"
		},
		{
			"bufferView":18,
			"componentType":5126,
			"count":24,
			"type":"VEC2"
		},
		{
			"bufferView":19,
			"componentType":5123,
			"count":36,
			"type":"SCALAR"
		},
		{
			"bufferView":20,
			"componentType":5126,
			"count":24,
			"max":[
				-0.4903230369091034,
				4.143239498138428,
				-0.0403626412153244
			],
			"min":[
				-1.5038444995880127,
				2.4320569038391113,
				-0.42502427101135254
			],
			"type":"VEC3"
		},
		{
			"bufferView":21,
			"componentType":5126,
			"count":24,
			"type":"VEC3"
		},
		{
			"bufferView":22,
			"componentType":5126,
			"count":24,
			"type":"VEC2"
		},
		{
			"bufferView":23,
			"componentType":5123,
			"count":36,
			"type":"SCALAR"
		},
		{
			"bufferView":24,
			"componentType":5126,
			"count":24,
			"max":[
				0.5874390006065369,
				2.200727701187134,
				0.007056280970573425
			],
			"min":[
				0.10823127627372742,
				0.011930704116821289,
				-0.4724435806274414
			],
			"type":"VEC3"
		},
		{
			"bufferView":25,
			"componentType":5126,
			"count":24,
			"type":"VEC3"
		},
		{
			"bufferView":26,
			"componentType":5126,
			"count":24,
			"type":"VEC2"
		},
		{
			"bufferView":27,
			"componentType":5123,
			"count":36,
			"type":"SCALAR"
		},
		{
			"bufferView":28,
			"componentType":5126,
			"count":24,
			"max":[
				-0.10879829525947571,
				2.2007274627685547,
				0.007056400179862976
			],
			"min":[
				-0.5880060791969299,
				0.011930704116821289,
				-0.47244346141815186
			],
			"type":"VEC3"
		},
		{
			"bufferView":29,
			"componentType":5126,
			"count":24,
			"type":"VEC3"
		},
		{
			"bufferView":30,
			"componentType":5126,
			"count":24,
			"type":"VEC2"
		}
	],
	"bufferViews":[
		{
			"buffer":0,
			"byteLength":288,
			"byteOffset":0,
			"target":34962
		},
		{
			"buffer":0,
			"byteLength":288,
			"byteOffset":288,
			"target":34962
		},
		{
			"buffer":0,
			"byteLength":192,
			"byteOffset":576,
			"target":34962
		},
		{
			"buffer":0,
			"byteLength":72,
			"byteOffset":768,
			"target":34963
		},
		{
			"buffer":0,
			"byteLength":192,
			"byteOffset":840,
			"target":34962
		},
		{
			"buffer":0,
			"byteLength":192,
			"byteOffset":1032,
			"target":34962
		},
		{
			"buffer":0,
			"byteLength":128,
			"byteOffset":1224,
			"target":34962
		},
		{
			"buffer":0,
			"byteLength":48,
			"byteOffset":1352,
			"target":34963
		},
		{
			"buffer":0,
			"byteLength":1152,
			"byteOffset":1400,
			"target":34962
		},
		{
			"buffer":0,
			"byteLength":1152,
			"byteOffset":2552,
			"target":34962
		},
		{
			"buffer":0,
			"byteLength":768,
			"byteOffset":3704,
			"target":34962
		},
		{
			"buffer":0,
			"byteLength":240,
			"byteOffset":4472,
			"target":34963
		},
		{
			"buffer":0,
			"byteLength":960,
			"byteOffset":4712,
			"target":34962
		},
		{
			"buffer":0,
			"byteLength":960,
			"byteOffset":5672,
			"target":34962
		},
		{
			"buffer":0,
			"byteLength":640,
			"byteOffset":6632,
			"target":34962
		},
		{
			"buffer":0,
			"byteLength":264,
			"byteOffset":7272,
			"target":34963
		},
		{
			"buffer":0,
			"byteLength":288,
			"byteOffset":7536,
			"target":34962
		},
		{
			"buffer":0,
			"byteLength":288,
			"byteOffset":7824,
			"target":34962
		},
		{
			"buffer":0,
			"byteLength":192,
			"byteOffset":8112,
			"target":34962
		},
		{
			"buffer":0,
			"byteLength":72,
			"byteOffset":8304,
			"target":34963
		},
		{
			"buffer":0,
			"byteLength":288,
			"byteOffset":8376,
			"target":34962
		},
		{
			"buffer":0,
			"byteLength":288,
			"byteOffset":8664,
			"target":34962
		},
		{
			"buffer":0,
			"byteLength":192,
			"byteOffset":8952,
			"target":34962
		},
		{
			"buffer":0,
			"byteLength":72,
			"byteOffset":9144,
			"target":34963
		},
		{
			"buffer":0,
			"byteLength":288,
			"byteOffset":9216,
			"target":34962
		},
		{
			"buffer":0,
			"byteLength":288,
			"byteOffset":9504,
			"target":34962
		},
		{
			"buffer":0,
			"byteLength":192,
			"byteOffset":9792,
			"target":34962
		},
		{
			"buffer":0,
			"byteLength":72,
			"byteOffset":9984,
			"target":34963
		},
		{
			"buffer":0,
			"byteLength":288,
			"byteOffset":10056,
			"target":34962
		},
		{
			"buffer":0,
			"byteLength":288,
			"byteOffset":10344,
			"target":34962
		},
		{
			"buffer":0,
			"byteLength":192,
			"byteOffset":10632,
			"target":34962
		}
	],
	"buffers":[
		{
			"byteLength":10824,
			"uri":"astronaut.bin"
		}
	]
}
