{
	"asset":{
		"generator":"Khronos glTF Blender I/O v5.1.19",
		"version":"2.0"
	},
	"scene":0,
	"scenes":[
		{
			"name":"Scene",
			"nodes":[
				0,
				1,
				2,
				3,
				4,
				5
			]
		}
	],
	"nodes":[
		{
			"mesh":0,
			"name":"head"
		},
		{
			"mesh":1,
			"name":"body"
		},
		{
			"mesh":2,
			"name":"left arm"
		},
		{
			"mesh":3,
			"name":"right arm"
		},
		{
			"mesh":4,
			"name":"left leg"
		},
		{
			"mesh":5,
			"name":"right leg"
		}
	],
	"materials":[
		{
			"doubleSided":true,
			"name":"Material.002",
			"pbrMetallicRoughness":{
				"baseColorTexture":{
					"index":0
				},
				"metallicFactor":0
			}
		},
		{
			"doubleSided":true,
			"name":"Material.001",
			"pbrMetallicRoughness":{
				"baseColorTexture":{
					"index":1
				},
				"metallicFactor":0
			}
		},
		{
			"doubleSided":true,
			"name":"Material",
			"pbrMetallicRoughness":{
				"baseColorFactor":[
					1,
					0.6938865780830383,
					0.7083905339241028,
					1
				],
				"metallicFactor":0,
				"roughnessFactor":0.5
			}
		}
	],
	"meshes":[
		{
			"name":"Sphere",
			"primitives":[
				{
					"attributes":{
						"POSITION":0,
						"NORMAL":1,
						"TEXCOORD_0":2
					},
					"indices":3,
					"material":0
				}
			]
		},
		{
			"name":"Cylinder",
			"primitives":[
				{
					"attributes":{
						"POSITION":4,
						"NORMAL":5,
						"TEXCOORD_0":6
					},
					"indices":7,
					"material":1
				}
			]
		},
		{
			"name":"Cube.002",
			"primitives":[
				{
					"attributes":{
						"POSITION":8,
						"NORMAL":9,
						"TEXCOORD_0":10
					},
					"indices":11,
					"material":2
				}
			]
		},
		{
			"name":"Cube.001",
			"primitives":[
				{
					"attributes":{
						"POSITION":12,
						"NORMAL":13,
						"TEXCOORD_0":14
					},
					"indices":15,
					"material":2
				}
			]
		},
		{
			"name":"Cube.003",
			"primitives":[
				{
					"attributes":{
						"POSITION":16,
						"NORMAL":17,
						"TEXCOORD_0":18
					},
					"indices":19,
					"material":2
				}
			]
		},
		{
			"name":"Cube.004",
			"primitives":[
				{
					"attributes":{
						"POSITION":20,
						"NORMAL":21,
						"TEXCOORD_0":22
					},
					"indices":11,
					"material":2
				}
			]
		}
	],
	"textures":[
		{
			"sampler":0,
			"source":0
		},
		{
			"sampler":0,
			"source":1
		}
	],
	"images":[
		{
			"mimeType":"image/png",
			"name":"body with organs",
			"uri":"body%20with%20organs.png"
		},
		{
			"mimeType":"image/png",
			"name":"bwo body",
			"uri":"bwo%20body.png"
		}
	],
	"accessors":[
		{
			"bufferView":0,
			"componentType":5126,
			"count":112,
			"max":[
				0.999714732170105,
				6.335676193237305,
				0.7673062682151794
			],
			"min":[
				-1.0002851486206055,
				4.335676193237305,
				-1.2326935529708862
			],
			"type":"VEC3"
		},
		{
			"bufferView":1,
			"componentType":5126,
			"count":112,
			"type":"VEC3"
		},
		{
			"bufferView":2,
			"componentType":5126,
			"count":112,
			"type":"VEC2"
		},
		{
			"bufferView":3,
			"componentType":5123,
			"count":144,
			"type":"SCALAR"
		},
		{
			"bufferView":4,
			"componentType":5126,
			"count":80,
			"max":[
				0.7460039258003235,
				4.50607442855835,
				0.2790796756744385
			],
			"min":[
				-0.7465748190879822,
				2.3019332885742188,
				-0.7444671392440796
			],
			"type":"VEC3"
		},
		{
			"bufferView":5,
			"componentType":5126,
			"count":80,
			"type":"VEC3"
		},
		{
			"bufferView":6,
			"componentType":5126,
			"count":80,
			"type":"VEC2"
		},
		{
			"bufferView":7,
			"componentType":5123,
			"count":132,
			"type":"SCALAR"
		},
		{
			"bufferView":8,
			"componentType":5126,
			"count":24,
			"max":[
				1.5032737255096436,
				4.3391900062561035,
				-0.04036282002925873
			],
			"min":[
				0.48975250124931335,
				2.628007411956787,
				-0.42502444982528687
			],
			"type":"VEC3"
		},
		{
			"bufferView":9,
			"componentType":5126,
			"count":24,
			"type":"VEC3"
		},
		{
			"bufferView":10,
			"componentType":5126,
			"count":24,
			"type":"VEC2"
		},
		{
			"bufferView":11,
			"componentType":5123,
			"count":36,
			"type":"SCALAR"
		},
		{
			"bufferView":12,
			"componentType":5126,
			"count":24,
			"max":[
				-0.4903230369091034,
				4.3391900062561035,
				-0.0403626412153244
			],
			"min":[
				-1.5038444995880127,
				2.628007411956787,
				-0.42502427101135254
			],
			"type":"VEC3"
		},
		{
			"bufferView":13,
			"componentType":5126,
			"count":24,
			"type":"VEC3"
		},
		{
			"bufferView":14,
			"componentType":5126,
			"count":24,
			"type":"VEC2"
		},
		{
			"bufferView":15,
			"componentType":5123,
			"count":36,
			"type":"SCALAR"
		},
		{
			"bufferView":16,
			"componentType":5126,
			"count":24,
			"max":[
				0.5874390006065369,
				2.3966782093048096,
				0.007056280970573425
			],
			"min":[
				0.10823127627372742,
				0.20788121223449707,
				-0.4724435806274414
			],
			"type":"VEC3"
		},
		{
			"bufferView":17,
			"componentType":5126,
			"count":24,
			"type":"VEC3"
		},
		{
			"bufferView":18,
			"componentType":5126,
			"count":24,
			"type":"VEC2"
		},
		{
			"bufferView":19,
			"componentType":5123,
			"count":36,
			"type":"SCALAR"
		},
		{
			"bufferView":20,
			"componentType":5126,
			"count":24,
			"max":[
				-0.10879829525947571,
				2.3966779708862305,
				0.007056400179862976
			],
			"min":[
				-0.5880060791969299,
				0.20788121223449707,
				-0.47244346141815186
			],
			"type":"VEC3"
		},
		{
			"bufferView":21,
			"componentType":5126,
			"count":24,
			"type":"VEC3"
		},
		{
			"bufferView":22,
			"componentType":5126,
			"count":24,
			"type":"VEC2"
		}
	],
	"bufferViews":[
		{
			"buffer":0,
			"byteLength":1344,
			"byteOffset":0,
			"target":34962
		},
		{
			"buffer":0,
			"byteLength":1344,
			"byteOffset":1344,
			"target":34962
		},
		{
			"buffer":0,
			"byteLength":896,
			"byteOffset":2688,
			"target":34962
		},
		{
			"buffer":0,
			"byteLength":288,
			"byteOffset":3584,
			"target":34963
		},
		{
			"buffer":0,
			"byteLength":960,
			"byteOffset":3872,
			"target":34962
		},
		{
			"buffer":0,
			"byteLength":960,
			"byteOffset":4832,
			"target":34962
		},
		{
			"buffer":0,
			"byteLength":640,
			"byteOffset":5792,
			"target":34962
		},
		{
			"buffer":0,
			"byteLength":264,
			"byteOffset":6432,
			"target":34963
		},
		{
			"buffer":0,
			"byteLength":288,
			"byteOffset":6696,
			"target":34962
		},
		{
			"buffer":0,
			"byteLength":288,
			"byteOffset":6984,
			"target":34962
		},
		{
			"buffer":0,
			"byteLength":192,
			"byteOffset":7272,
			"target":34962
		},
		{
			"buffer":0,
			"byteLength":72,
			"byteOffset":7464,
			"target":34963
		},
		{
			"buffer":0,
			"byteLength":288,
			"byteOffset":7536,
			"target":34962
		},
		{
			"buffer":0,
			"byteLength":288,
			"byteOffset":7824,
			"target":34962
		},
		{
			"buffer":0,
			"byteLength":192,
			"byteOffset":8112,
			"target":34962
		},
		{
			"buffer":0,
			"byteLength":72,
			"byteOffset":8304,
			"target":34963
		},
		{
			"buffer":0,
			"byteLength":288,
			"byteOffset":8376,
			"target":34962
		},
		{
			"buffer":0,
			"byteLength":288,
			"byteOffset":8664,
			"target":34962
		},
		{
			"buffer":0,
			"byteLength":192,
			"byteOffset":8952,
			"target":34962
		},
		{
			"buffer":0,
			"byteLength":72,
			"byteOffset":9144,
			"target":34963
		},
		{
			"buffer":0,
			"byteLength":288,
			"byteOffset":9216,
			"target":34962
		},
		{
			"buffer":0,
			"byteLength":288,
			"byteOffset":9504,
			"target":34962
		},
		{
			"buffer":0,
			"byteLength":192,
			"byteOffset":9792,
			"target":34962
		}
	],
	"samplers":[
		{
			"magFilter":9729,
			"minFilter":9987
		}
	],
	"buffers":[
		{
			"byteLength":9984,
			"uri":"body%20with%20organs.bin"
		}
	]
}
